ply
format ascii 1.0
comment Generated by PyMesh
element vertex 435
property float x
property float y
property float z
property float iface
property float charge
property float hbond
property float hphob
property float nx
property float ny
property float nz
element face 866
property list uchar int vertex_indices
end_header
18.8995 26.778 11.148 0.547381 1.1148 0 4.5 -0.777569 0.611846 -0.14502
17.6475 31.3225 2.368 0.417213 0.2368 0 -3.5 -0.21908 0.713133 0.665917
25.138 23.836 -3.4315 0.628938 -0.34315 0 4.2 0.68099 -0.547631 -0.486161
18.506 25.925 12.9495 0.454953 1.29495 0 4.5 -0.846205 0.526695 0.0808033
21.106 19.5425 18.427 0.218707 1.8427 0 3.8 0.961438 -0.0470436 -0.270969
28.557 24.716 -5.603 0.516957 -0.5603 0 -3.9 -0.15272 -0.981745 -0.113368
22.079 23.6555 10.6198 0.573114 1.06198 0 4.5 0.817076 -0.404803 -0.410514
20.4985 19.3065 14.2385 0.22229 1.42385 -0.575885 3.8 0.64272 -0.580625 -0.499785
15.0375 24.228 17.1415 0.228331 1.71415 0.630317 -0.8 0.0968305 0.98112 -0.167415
17.978 18.1695 12.2915 0.261051 1.22915 -0.871818 -0.7 0.624283 -0.701384 -0.343992
15.703 30.732 1.89 0.409303 0.189 0 -3.5 -0.742896 0.443891 0.501065
26.767 25.192 -4.3385 0.605234 -0.43385 0 -3.9 -0.0453867 -0.997083 -0.061357
22.4779 26.1024 13.2245 0.518127 1.32245 0 4.5 0.956394 0.292047 -0.00437624
20.196 22.6978 -0.896 0.729858 -0.0896 0 4.2 -0.823908 -0.56006 0.0866491
26.8923 25.0772 -3.34975 0.591038 -0.334975 0 -3.72615 0.0268388 -0.904415 0.425809
20.4795 28.5063 -0.472 0.479894 -0.0472 -0.0127087 -3.34469 -0.234799 0.393319 -0.888915
17.3785 23.1745 15.8165 0.227571 1.58165 0 -0.798891 0.383152 0.910489 0.155578
19.4935 19.19 13.8112 0.2504 1.38112 -0.209412 1.09969 0.463878 -0.725878 -0.507856
18.6642 18.956 13.0548 0.234758 1.30547 -0.39167 -0.7 0.625502 -0.702027 -0.340448
19.871 21.418 11.009 0.486753 1.1009 0.447311 4.5 0.52656 -0.708986 -0.469119
27.674 29.4573 0.925 0.568099 0.0925 0 -3.5 0.967295 -0.0245536 -0.252463
15.007 19.604 16.065 0.217854 1.6065 0 -0.8 -0.472398 -0.871292 -0.133002
18.283 26.6637 6.33375 0.701646 0.633375 0 1.8 -0.784924 0.606556 0.126428
21.1535 22.6052 11.9502 0.46442 1.19502 0.0725029 4.5 0.774146 -0.63298 0.0058092
28.1976 24.8034 -4.66262 0.553507 -0.466262 0 -3.9 -0.164443 -0.986102 -0.0236805
13.4915 22.6082 19.1235 0.203466 1.91235 0 -0.8 -0.839616 -0.0338842 0.542122
18.05 24.031 8.20025 0.596042 0.820025 0 4.5 -0.951788 -0.246212 -0.182971
16.771 29.7775 2.6765 0.485455 0.26765 -0.122067 -3.5 -0.640957 0.18809 0.744175
17.9915 25.7108 2.47325 0.68259 0.247325 -0.142293 -1.58568 -0.886352 -0.309162 -0.344672
27.3255 27.968 -7.3105 0.345369 -0.73105 -0.966158 -3.9 0.19904 0.798759 -0.567774
29.4673 27.4678 -7.001 0.320329 -0.7001 0 -3.9 0.214364 0.492264 -0.843638
18.757 26.7235 13.5085 0.446032 1.35085 0 4.5 -0.834471 0.51247 0.202566
24.144 27.5842 2.42 0.714685 0.242 -0.0174375 -3.5 0.289761 -0.421288 0.859393
27.743 27.0145 -7.823 0.301742 -0.7823 -0.888999 -3.9 0.520661 0.123881 -0.844728
22.947 25.752 2.712 0.766883 0.2712 -0 -3.5 0.675285 -0.617842 0.402817
24.744 23.3517 -1.08325 0.761865 -0.108325 0 4.2 0.663916 -0.543408 0.513734
20.362 22.2665 9.3795 0.612439 0.93795 -0.688879 4.5 0.579246 -0.719043 -0.383993
16.1273 23.3974 13.3124 0.332848 1.33124 -0.0482838 -0.7 -0.844171 0.382222 -0.375874
20.6115 21.4465 11.894 0.431775 1.1894 0.788788 4.5 0.714743 -0.68803 -0.125528
21.0155 19.3975 17.3665 0.214145 1.73665 0 3.8 0.981417 0.0944277 -0.167043
32.445 28.4065 -1.9485 0.448764 -0.19485 0 -3.9 -0.0805012 0.578053 0.812018
21.0845 27.6635 12.198 0.559991 1.2198 0 4.5 0.180523 0.969137 -0.167884
23.2623 30.22 0.62425 0.448109 0.062425 0 -3.5 -0.667802 0.670654 -0.322899
17.7885 16.6365 19.77 0.205493 1.977 0 3.8 -0.777553 -0.628576 0.0174305
21.693 25.3525 8.19125 0.699259 0.819125 0 1.8 0.844897 -0.0460421 0.532944
18.3265 25.8242 11.3375 0.517757 1.13375 0 4.5 -0.767134 0.63531 -0.0888123
19.5835 27.425 14.0155 0.463347 1.40155 0 4.5 -0.5348 0.791468 0.295918
31.9905 25.5765 -6.146 0.378505 -0.6146 0 -3.9 0.51716 -0.513002 -0.685109
16.757 19.0732 15.8973 0.214593 1.58973 0.4722 3.62754 -0.397038 -0.912395 0.0994776
21.8143 22.441 0.296 0.790901 0.0296 0 4.2 -0.203821 -0.655377 0.727281
27.5795 29.4015 -5.162 0.473555 -0.5162 0 -3.9 0.0605128 0.907227 -0.416266
34.0778 27.4349 -2.96163 0.370214 -0.296162 0 -3.9 0.983367 0.0476704 0.175263
31.322 26.5685 -1.7705 0.526441 -0.17705 0 -3.9 -0.168677 -0.3353 0.926888
28.3495 27.605 -6.951 0.311802 -0.6951 0 -3.9 0.318189 0.585379 -0.745712
19.0837 32.4048 0.08975 0.347846 0.008975 0.0829492 -3.5 0.331344 0.900858 -0.280473
20.774 18.272 17.676 0.187777 1.7676 0 3.8 0.789341 -0.584507 -0.187861
26.8 26.1875 -8.125 0.360541 -0.8125 -0.807535 -3.9 2.76122e-05 -0.438061 -0.898945
26.8 27.3425 -8.125 0.296185 -0.8125 -0.627371 -3.9 -0.092124 0.435813 -0.89531
16.1815 17.9853 12.7832 0.216681 1.27832 -0.437049 -0.7 -0.628052 -0.721997 -0.290294
25.4998 24.0775 -1.658 0.677852 -0.1658 0 4.2 0.900918 -0.384116 0.201995
25.149 29.1245 3.852 0.560871 0.3852 0 -3.5 -0.169695 -0.611529 0.77281
14.4465 24.489 19.265 0.196626 1.9265 0 -0.8 -0.0964435 0.845094 0.525847
17.8655 23.9618 17.909 0.218005 1.7909 -0.0402419 -0.8 0.45457 0.879795 -0.139019
22.767 25.2875 4.831 0.777608 0.4831 0 1.8 0.852483 -0.333074 -0.402908
20.2305 21.672 21.2173 0.215353 2.12173 0 3.8 0.252126 0.698891 0.669316
19.0305 21.345 21.3522 0.21449 2.13523 0 3.8 -0.426019 0.501223 0.753182
31.02 29.249 -4.12325 0.434295 -0.412325 0 -3.9 0.0791026 0.946949 -0.311496
20.7315 18.9533 15.3585 0.212401 1.53585 -0.547945 3.8 0.799994 -0.584108 -0.137215
27.5515 28.493 3.1685 0.611575 0.31685 0 -3.5 0.564067 -0.635899 0.526746
17.474 18.1875 20.061 0.213543 2.0061 0 3.8 -0.912777 -0.238049 0.33192
18.4355 23.8193 4.288 0.702587 0.4288 -0.775933 1.8 -0.381194 -0.919109 -0.0996479
13.9085 20.7428 15.291 0.22149 1.5291 0 -0.8 -0.6024 -0.506048 -0.617276
25.7397 25.1187 -4.77275 0.559396 -0.477275 0 -3.9 -0.151335 -0.985198 -0.080512
24.0435 29.074 3.0755 0.638346 0.30755 0 -3.5 -0.195628 -0.548672 0.812828
13.5468 21.934 14.9945 0.25317 1.49945 -0.734671 -0.8 -0.689179 -0.140787 -0.710782
13.7215 23.9487 17.4785 0.222488 1.74785 0.527325 -0.8 -0.676029 0.731931 -0.0852187
18.34 25.3472 8.29725 0.625985 0.829725 0 3.133 -0.804743 0.574963 0.147669
22.1305 23.4028 12.8907 0.481186 1.28908 0 4.5 0.667446 -0.73487 0.120341
18.2585 18.5315 13.995 0.222344 1.3995 -0.455441 -0.556296 0.396449 -0.917872 0.018419
17.552 22.834 19.577 0.218163 1.9577 -0 -0.8 0.0258838 0.269073 0.962772
25.6728 25.8818 0.03525 0.73936 0.003525 0.775342 -3.5 0.531579 -0.632806 0.56301
12.643 21.365 17.6933 0.221735 1.76933 0 -0.8 -0.926781 -0.255447 0.27536
20.1268 26.5578 8.365 0.707006 0.8365 0 2.99933 -0.0648505 0.986917 -0.147609
16.6162 30.8838 2.269 0.419304 0.2269 0 -3.5 -0.488241 0.474502 0.73244
23.2815 29.339 -1.724 0.486724 -0.1724 0 -3.5 -0.336725 0.895311 -0.291606
16.388 23.5457 15.0323 0.257215 1.50322 -0.367148 -0.747574 -0.049846 0.979242 0.196471
18.2512 17.9075 21.5685 0.206892 2.15685 0 3.8 -0.654191 -0.192428 0.731441
14.4465 23.6682 19.9025 0.199028 1.99025 0 -0.8 -0.260321 0.2454 0.933816
24.7735 30.2875 4.555 0.51014 0.4555 0 -3.5 -0.313978 -0.271685 0.909728
26.3657 28.4188 3.276 0.633509 0.3276 0 -3.5 0.0647269 -0.784834 0.616316
22.73 22.7442 -3.48075 0.676965 -0.348075 0 4.2 -0.152214 -0.651124 -0.743551
25.76 25.4513 -1.67325 0.739485 -0.167325 0.0693395 -2.50224 0.884315 -0.445103 0.140961
17.5133 18.3665 14.658 0.223489 1.4658 0.21947 -0.7 0.0830588 -0.93007 0.357871
18.0093 17.1537 18.6553 0.204954 1.86553 0 3.8 -0.47043 -0.762858 -0.443558
17.0245 19.249 19.992 0.21013 1.9992 0 3.8 -0.870104 -0.281352 0.404672
27.8905 28.3377 -6.234 0.35603 -0.6234 -0.294679 -3.9 0.189349 0.824001 -0.534013
21.3345 23.8657 9.8175 0.652656 0.98175 0 4.5 0.784128 -0.352788 -0.510572
27.379 30.3025 -3.4035 0.430589 -0.34035 -0.159383 -3.5 0.0999256 0.913561 -0.394235
23.1745 30.8015 3.1545 0.498548 0.31545 0.729813 -3.5 -0.849492 0.380824 0.365153
23.7383 30.896 1.20275 0.474718 0.120275 0 -3.5 -0.486796 0.821633 -0.296561
32.7757 26.7913 -5.74675 0.338697 -0.574675 0 -3.9 0.687284 0.132823 -0.714142
14.0052 24.062 15.4205 0.245422 1.54205 -0.0296598 -0.8 -0.343811 0.767214 -0.541458
15.625 19.899 18.163 0.220976 1.8163 0 3.8 -0.330167 -0.844414 0.421847
22.1395 27.4375 13.114 0.529097 1.3114 0 4.5 0.799072 0.600821 0.0223037
14.4975 24.6112 18.1803 0.200462 1.81802 0 -0.8 -0.0990376 0.983787 -0.149515
16.9328 19.1115 18.2563 0.214649 1.82562 0 3.8 -0.698277 -0.659111 0.279252
15.617 24.396 18.7757 0.207309 1.87758 0 -0.8 0.297082 0.937154 0.182992
26.7275 30.722 3.95275 0.49395 0.395275 -0.16995 -3.5 0.664819 0.425052 0.614285
17.5627 24.129 6.089 0.679804 0.6089 0.0519743 1.8 -0.84266 -0.53771 -0.0281242
17.861 25.7535 4.996 0.666019 0.4996 -0.101367 1.8 -0.957066 0.284254 0.056788
22.784 22.1615 0.157 0.746719 0.0157 0 4.2 0.299206 -0.617594 0.727361
19.7243 22.1478 15.196 0.253819 1.5196 0 3.8 0.681288 0.640213 0.354929
16.6173 24.1215 18.406 0.218943 1.8406 -0.826774 -0.8 0.17394 0.983673 0.0461725
27.0208 27.2955 -0.7815 0.694063 -0.07815 0 -3.5 0.702102 -0.666136 0.251626
26.3507 30.98 1.00725 0.443623 0.100725 0 -3.5 0.306634 0.93508 -0.177769
22.7418 26.6493 5.00675 0.795579 0.500675 0 1.8 0.894864 0.44503 -0.0341661
21.114 17.3813 19.4525 0.201108 1.94525 0 3.8 0.845433 -0.489681 -0.213205
19.0193 20.1068 21.6693 0.205518 2.16692 0 3.8 -0.327005 0.0991434 0.939808
23.123 23.395 0.44275 0.769137 0.044275 0 4.2 0.481282 -0.419912 0.769442
21.6077 23.6793 4.85175 0.805273 0.485175 0 1.8 0.303964 -0.827018 -0.472913
27.6585 29.9702 3.46575 0.551202 0.346575 -0.928501 -3.5 0.761334 0.198068 0.617365
18.7625 27.6332 -0.54075 0.526372 -0.054075 0 -3.5 -0.443352 -0.118257 -0.888512
23.7348 22.5933 -0.865 0.730847 -0.0865 0 4.2 0.616314 -0.71447 0.331194
15.9705 31.243 0.9035 0.358948 0.09035 -0.720057 -3.5 -0.704254 0.640411 -0.306433
25.4945 25.1353 -0.7155 0.753051 -0.07155 0.408942 0.613553 0.697767 -0.517187 0.49562
17.3505 18.7297 11.4482 0.283023 1.14482 -0.82863 -0.7 0.202034 -0.741022 -0.640366
21.7533 25.4228 9.85475 0.642734 0.985475 0 4.5 0.868795 0.0599948 -0.491523
31.8185 26.482 -6.5555 0.380568 -0.65555 0 -3.9 0.4 0.118296 -0.908849
21.5268 21.9088 -2.6445 0.744741 -0.26445 0 4.2 -0.270428 -0.753531 -0.599216
17.7712 24.672 7.3255 0.661231 0.73255 0 1.8 -0.958854 -0.131346 0.251687
16.3692 17.7243 13.7677 0.216019 1.37678 0.466365 -0.7 -0.411267 -0.86879 0.275797
22.4618 25.6873 12.132 0.573896 1.2132 0 4.5 0.978303 0.182923 -0.09728
25.8477 26.512 -7.762 0.363782 -0.7762 -0.945712 -3.9 -0.689214 -0.0438435 -0.72323
24.1478 23.838 -0.41125 0.769945 -0.041125 0 4.2 0.627034 -0.475269 0.617209
20.936 18.5725 18.8185 0.215838 1.88185 0 3.8 0.838642 -0.410659 -0.357826
18.5812 25.883 14.0775 0.407285 1.40775 0 4.5 -0.777303 0.332799 0.533896
16.9501 28.4991 0.7975 0.532344 0.07975 -0.218206 -3.5 -0.579866 -0.667846 -0.466624
27.6982 28.0601 -0.939375 0.645187 -0.0939375 0 -3.5 0.811683 -0.449458 0.373038
17.5758 25.1378 10.802 0.479557 1.0802 0 4.5 -0.785364 0.611611 -0.0955792
15.6298 22.4764 19.7029 0.205082 1.97029 0 -0.8 0.196536 0.0141032 0.980395
22.5413 29.5741 0.936375 0.486384 0.0936375 0 -3.5 -0.345426 0.919661 -0.186828
30.5524 26.8675 -6.77913 0.375245 -0.677912 0 -3.9 0.295628 0.270542 -0.916194
13.6073 20.367 17.8622 0.219168 1.78622 0 -0.8 -0.612153 -0.719515 0.327973
14.964 19.7269 17.0974 0.227365 1.70974 0.122952 1.38877 -0.349707 -0.915999 0.1966
18.3226 20.617 20.8894 0.21101 2.08894 0 3.8 -0.634698 0.354876 0.686455
19.7205 31.4135 1.91762 0.489155 0.191763 0.0441871 -3.5 0.573131 0.621777 0.533774
19.8727 28.0327 5.34375 0.692466 0.534375 0 0.666877 0.0920166 0.91001 0.404247
31.8684 24.9055 -5.39925 0.431305 -0.539925 0 -3.9 0.510367 -0.745871 -0.42802
14.1375 20.243 18.792 0.214744 1.8792 0 -0.8 -0.411616 -0.783916 0.464809
19.6485 30.4431 -0.235625 0.428469 -0.0235625 0 -3.5 0.448579 0.156568 -0.879923
17.4555 20.2635 20.413 0.210384 2.0413 0 3.8 -0.626795 0.222254 0.746814
22.252 24.5125 7.0575 0.754343 0.70575 0 1.8 0.734516 -0.522736 0.432705
18.4075 19.4449 11.9455 0.315063 1.19455 -0.143042 -0.7 0.674774 -0.548095 -0.494239
21.9792 26.5386 10.0068 0.65564 1.00067 0 4.5 0.796692 0.242821 -0.553461
31.478 24.306 -4.516 0.486271 -0.4516 0 -3.9 0.311691 -0.947784 0.0674881
27.4115 25.015 -5.39825 0.555445 -0.539825 0 -3.9 -0.145949 -0.977398 -0.152944
16.633 27.8905 2.365 0.576828 0.2365 0 -3.5 -0.850433 -0.513089 0.116199
20.6338 22.2331 10.8617 0.531263 1.08617 0.31003 4.5 0.695533 -0.653619 -0.298355
20.4951 16.9702 20.5644 0.197007 2.05644 0 3.8 0.648347 -0.663968 0.372549
18.8888 26.6455 12.329 0.47193 1.2329 0 4.5 -0.786113 0.618077 0.00265833
21.8232 26.5042 7.26075 0.751575 0.726075 0 1.8 0.457224 0.705017 0.542123
30.7329 24.7015 -5.64062 0.486175 -0.564062 0 -3.9 0.0268651 -0.853387 -0.520586
33.6315 28.4258 -2.18875 0.394423 -0.218875 0.0947144 -3.9 0.651216 0.481471 0.586604
17.5537 26.9182 2.0445 0.605318 0.20445 0 -3.5 -0.900423 -0.414309 -0.132611
22.4514 26.6796 6.20138 0.769463 0.620138 0 1.8 0.702317 0.636752 0.318273
16.3365 23.2323 16.2617 0.238193 1.62618 0 -0.8 0.205923 0.978553 0.00536425
19.1865 22.0585 20.5422 0.221165 2.05422 0 3.8 -0.318906 0.757959 0.569032
24.9861 25.742 -5.377 0.561466 -0.5377 0 -3.9 -0.814715 -0.440657 -0.376909
20.8566 20.1688 14.7904 0.231838 1.47904 -0.0243963 3.8 0.972043 0.149737 -0.180865
33.3592 25.8902 -2.69125 0.474358 -0.269125 0.097275 -3.9 0.44358 -0.817856 0.366537
23.8493 24.6935 0.91675 0.745162 0.091675 0 4.2 0.533411 -0.455599 0.712672
14.3165 22.84 14.4545 0.272692 1.44545 -0.90795 -0.8 -0.460692 0.472853 -0.751115
21.164 18.203 20.1805 0.211399 2.01805 0 3.8 0.943363 -0.168664 0.285691
20.6803 30.7751 0.97325 0.506596 0.097325 0.928865 -3.5 0.797751 0.593033 -0.109112
13.2589 23.0501 17.832 0.216144 1.7832 0 -0.8 -0.975141 0.18801 0.117274
29.3955 28.2659 -6.04513 0.357686 -0.604513 0 -3.9 0.145007 0.851702 -0.503563
30.114 29.0783 -3.51675 0.468009 -0.351675 0 -3.9 0.00573114 0.981142 0.193204
21.7021 24.9867 1.99 0.79399 0.199 0 -3.5 0.187494 -0.933773 0.304817
16.2929 18.754 11.6609 0.260216 1.16609 -0.780426 -0.7 -0.3542 -0.767036 -0.534975
27.8465 29.49 -4.1005 0.451976 -0.41005 0 -3.9 0.132821 0.889354 -0.437503
23.7188 30.1895 3.75625 0.567875 0.375625 0 -3.5 -0.551959 -0.295948 0.779587
17.7315 21.9335 9.60475 0.518009 0.960475 0 1.83406 -0.198406 -0.263744 -0.943967
32.909 27.598 -1.585 0.436311 -0.1585 0.0554144 -3.9 0.122341 0.131111 0.98379
17.4815 18.4042 18.8358 0.209591 1.88357 0 3.8 -0.906402 -0.418422 -0.0579484
22.6915 26.6632 3.879 0.775694 0.3879 -0.263066 -0.795438 0.901628 0.110678 0.418112
27.9575 24.7528 -3.43075 0.618157 -0.343075 0 -3.9 -0.109047 -0.947312 0.30118
21.4408 27.5543 10.4709 0.635709 1.04709 0 4.5 0.3367 0.855596 -0.393178
21.1474 25.8533 -2.71613 0.604434 -0.271612 0 4.2 -0.668149 0.385253 -0.63652
20.6632 18.7978 16.6109 0.21492 1.66109 0 3.8 0.848258 -0.471188 -0.241745
27.66 28.3783 1.746 0.617319 0.1746 -0.328091 -3.5 0.811025 -0.58398 0.034727
15.57 19.391 12.26 0.250775 1.226 -0.216019 -0.7 -0.857556 -0.499433 -0.12314
25.397 29.468 -3.442 0.527059 -0.3442 0 -3.5 -0.476237 0.563041 -0.675413
21.3027 24.6817 -3.26075 0.671656 -0.326075 0 4.2 -0.65137 0.0502134 -0.757097
20.369 24.877 2.50275 0.764675 0.250275 -0.0722102 0.510427 0.278817 -0.924169 -0.261099
20.7123 27.0781 6.88925 0.727555 0.688925 0 1.8 0.160247 0.770533 0.616927
30.0268 28.7329 -4.66813 0.424503 -0.466812 0 -3.9 0.0682647 0.905243 -0.419374
21.3958 24.7307 9.15675 0.686806 0.915675 0 4.09811 0.950378 -0.230031 -0.209444
26.1659 24.9889 -5.71012 0.535555 -0.571012 0 -3.9 -0.275328 -0.941056 -0.196488
26.5544 29.3821 3.87625 0.580312 0.387625 -0.249039 -3.5 0.297311 -0.341067 0.891784
31.929 28.8302 -4.18425 0.38486 -0.418425 0 -3.9 0.213429 0.893684 -0.394685
23.0264 25.5564 5.90075 0.816042 0.590075 0 1.8 0.992766 -0.012761 0.119389
18.9785 22.722 18.3475 0.216604 1.83475 -0.0806074 3.37218 0.654626 0.747986 -0.109459
17.7418 24.5203 4.96175 0.683984 0.496175 -0.680664 1.8 -0.939714 -0.338079 -0.0513875
18.1512 29.9873 -0.442437 0.397422 -0.0442437 0 -3.5 -0.0520059 -0.105175 -0.993093
19.8899 26.9514 9.59625 0.615478 0.959625 0 4.5 -0.340442 0.844148 -0.414141
28.5292 26.4408 -7.17425 0.346791 -0.717425 -0.908486 -3.9 0.294304 -0.0880208 -0.95165
15.5212 19.1614 13.456 0.218642 1.3456 0.0127315 -0.7 -0.89004 -0.447463 0.087208
26.4912 27.115 0.49525 0.719305 0.049525 0 -3.5 0.584573 -0.672039 0.454575
20.3925 27.3316 -0.8455 0.557369 -0.08455 0 1.76398 -0.476751 0.228875 -0.84872
19.3431 18.5691 22.0326 0.208159 2.20326 0 3.8 -0.00102237 -0.127703 0.991812
16.0464 20.6416 9.82375 0.413299 0.982375 0 -0.7 -0.40796 -0.0968151 -0.907852
19.013 29.5955 3.943 0.588252 0.3943 0 -3.5 0.162931 0.478723 0.862715
17.396 24.8766 12.1375 0.467569 1.21375 0 4.5 -0.757679 0.652626 -0.00157942
17.6181 30.1885 3.15025 0.51762 0.315025 0 -3.5 -0.329477 0.458882 0.82515
20.88 22.6187 12.9222 0.408926 1.29223 0 4.5 0.678107 -0.702841 0.214907
15.9917 23.45 19.54 0.210434 1.954 -0.346103 -0.8 0.232608 0.461836 0.855921
21.183 25.9709 15.7991 0.352662 1.57991 0 4.5 0.223541 0.0365504 0.974009
20.4271 22.1149 20.3306 0.219657 2.03306 0 3.8 0.413129 0.887424 0.204457
18.9485 16.3676 19.7204 0.203395 1.97204 0 3.8 -0.0410011 -0.993532 -0.105891
16.7651 30.7169 -0.1495 0.352918 -0.01495 -0.329193 -3.5 -0.535836 0.289247 -0.793231
21.1685 22.9885 10.4405 0.547108 1.04405 0.00188077 4.5 0.736785 -0.611065 -0.289392
13.485 23.9855 18.6645 0.196252 1.86645 0 -0.8 -0.817317 0.530787 0.224185
17.648 24.5767 3.574 0.684071 0.3574 -0.174364 1.8 -0.905322 -0.365054 -0.217086
16.038 19.1445 17.2825 0.224772 1.72825 0.534654 3.8 -0.456611 -0.877286 0.147902
26.1881 27.9339 -7.095 0.397325 -0.7095 -0.850084 -3.9 -0.536389 0.704467 -0.464772
20.131 20.6451 21.9049 0.206163 2.19049 0 3.8 0.235616 0.117587 0.964706
17.7463 26.2342 3.741 0.670322 0.3741 0 1.8 -0.983492 0.113473 0.140954
21.5564 21.6432 -1.62725 0.76241 -0.162725 0 4.2 -0.265724 -0.963294 -0.0381605
23.1285 30.5236 2.10975 0.532203 0.210975 0.757369 -3.5 -0.817471 0.568319 -0.0935645
34.2287 27.4705 -4.0565 0.347472 -0.40565 0.236452 -3.9 0.931643 0.0256852 -0.362467
20.5215 23.6475 6.23575 0.737333 0.623575 0 1.8 0.091855 -0.995772 -0.00104526
13.275 23.0445 15.466 0.241732 1.5466 -0.955813 -0.8 -0.835274 0.324882 -0.443587
21.9575 26.6602 -2.54125 0.580198 -0.254125 -0.206443 4.2 -0.469422 0.428308 -0.772137
28.9298 28.6232 -5.049 0.380835 -0.5049 0 -3.9 0.257922 0.893994 -0.366403
16.091 23.8081 17.2984 0.224333 1.72984 -0.153604 -0.8 0.308345 0.904873 -0.293477
20.84 22.625 0.01 0.737487 0.001 0 4.2 -0.48271 -0.635914 0.602166
17.5955 23.3899 16.9741 0.215622 1.69741 -0.0485278 -0.8 0.340575 0.856733 -0.387322
16.4923 24.3235 13.4677 0.377824 1.34678 -0.285264 -0.7 -0.660627 0.746334 0.080971
21.7104 23.6001 6.06838 0.763282 0.606838 0 1.8 0.28589 -0.951666 0.112246
20.5483 28.8775 3.0475 0.620632 0.30475 0.0699217 -3.5 0.267153 0.667954 0.694598
33.7875 26.1915 -3.75062 0.400516 -0.375062 0.149559 -3.9 0.83079 -0.554014 -0.0534448
19.0405 22.6895 19.541 0.217886 1.9541 0 3.8 0.278044 0.838413 0.468781
21.216 27.8676 13.6666 0.474882 1.36666 0 4.5 0.152621 0.969883 0.189827
20.6893 20.0923 16.3412 0.215898 1.63412 -0.0488848 3.8 0.991676 0.127319 -0.0191938
19.6445 16.9509 21.2285 0.201645 2.12285 0 3.8 0.159114 -0.780338 0.604777
31.7633 28.9691 -2.71837 0.456717 -0.271838 0.0326288 -3.9 -0.09143 0.855721 0.509295
15.6391 23.3225 14.274 0.299003 1.4274 -0.589017 -0.744404 -0.54109 0.73443 -0.409676
22.2474 25.2197 14.4759 0.412707 1.44759 0 4.5 0.602437 -0.128415 0.787768
33.297 27.7458 -4.8295 0.31988 -0.48295 0.0734732 -3.9 0.609075 0.372585 -0.700148
23.2205 25.3955 1.64875 0.761474 0.164875 0 3.53272 0.542894 -0.608785 0.578487
19.3032 20.7516 11.6117 0.392394 1.16118 0 0.561158 0.650847 -0.661692 -0.37224
16.8586 29.4104 -0.16775 0.38507 -0.016775 0 -3.5 -0.376837 -0.352067 -0.856763
29.2165 24.9023 -6.64 0.472214 -0.664 0 -3.9 0.0662008 -0.805173 -0.589333
16.3867 18.5853 14.7956 0.208215 1.47956 0.80636 -0.7 -0.51353 -0.726883 0.45599
18.9246 21.4006 10.083 0.504765 1.0083 0 2.03372 0.387791 -0.750785 -0.534733
21.7499 20.2367 19.3746 0.214288 1.93746 0 3.8 0.995693 0.00658452 -0.0924735
32.939 29.2593 -2.84475 0.400044 -0.284475 0.87279 -3.9 0.169296 0.957166 0.234888
22.4692 21.7784 -0.84325 0.769107 -0.084325 0 4.2 0.135234 -0.974624 0.178381
18.592 24.6944 2.33612 0.733466 0.233612 -0.475531 -0.193829 -0.471537 -0.678725 -0.563014
27.0775 30.9229 2.60075 0.421044 0.260075 -0.0932503 -3.5 0.576726 0.816938 -0.000316575
20.2865 17.9503 21.4912 0.205743 2.14913 0 3.8 0.64088 -0.22607 0.733598
17.2804 17.7289 13.0022 0.221806 1.30023 -0.255758 -0.7 0.14138 -0.970507 -0.195263
27.6623 30.4186 -2.19038 0.474903 -0.219038 -0.573108 -3.5 0.587141 0.798143 0.135031
22.4653 24.2891 5.2935 0.810773 0.52935 0 1.8 0.832356 -0.536365 -0.139632
15.717 19.3524 14.922 0.215232 1.4922 0.353802 -0.7 -0.682208 -0.729718 0.0458569
23.435 24.3095 -4.331 0.579342 -0.4331 0 4.2 -0.275378 -0.00527514 -0.961322
25.1206 26.8568 -6.55925 0.468784 -0.655925 0 -3.9 -0.91906 0.0539144 -0.390412
24.178 30.6385 -0.03075 0.445659 -0.003075 0 -3.5 -0.347775 0.825176 -0.445125
18.1011 18.5561 15.6558 0.21246 1.56558 0 3.8 -0.0843116 -0.993422 -0.0774853
18.3808 28.9303 -0.251 0.455676 -0.0251 0 -3.5 -0.321962 -0.262966 -0.909499
13.8361 24.219 16.4595 0.234459 1.64595 0.606979 -0.8 -0.467389 0.881432 -0.0680092
17.7239 23.6771 19.0206 0.209985 1.90206 -0.179625 -0.8 0.332181 0.798179 0.50256
24.347 31.1882 4.32737 0.447615 0.432737 0 -3.5 -0.488296 0.447013 0.749498
19.4409 18.5589 14.797 0.2244 1.4797 0 3.8 0.27141 -0.923105 -0.272421
27.6646 25.753 -2.70263 0.607331 -0.270263 0 -3.9 0.0934332 -0.568861 0.817109
27.3739 30.2202 0.281625 0.53312 0.0281625 0 -3.5 0.789733 0.596609 -0.142756
32.4243 25.303 -3.82 0.471688 -0.382 0 -3.9 0.421681 -0.875418 0.236281
19.99 20.0015 13.2303 0.272412 1.32302 0 -0.7 0.792241 -0.36393 -0.489806
17.4947 28.9142 3.52175 0.575044 0.352175 0 -3.5 -0.573716 0.0903048 0.814061
19.8551 27.642 10.9784 0.599572 1.09784 0 4.5 -0.286326 0.936943 -0.200389
17.7604 32.3744 0.1 0.337372 0.01 0.81755 -3.5 -0.421519 0.858711 -0.29144
21.556 27.6065 -2.1695 0.524643 -0.21695 -0.627098 4.2 -0.639739 0.281159 -0.715321
25.9979 30.0721 -2.71762 0.480849 -0.271762 -0.0275169 -3.5 -0.298341 0.852445 -0.429337
19.423 26.189 -0.10625 0.617811 -0.010625 0.088855 -1.4589 -0.739328 -0.31126 -0.597086
16.1196 29.2087 2.1075 0.517619 0.21075 -0.746136 -3.5 -0.80694 -0.221384 0.547574
19.0042 23.4084 6.54862 0.689081 0.654863 0.104049 1.8 -0.0222207 -0.995728 -0.0896171
22.4896 25.6752 7.165 0.770989 0.7165 0 1.8 0.879586 0.0659639 0.471144
27.834 25.6359 -7.17513 0.43369 -0.717512 -0.857694 -3.9 0.162921 -0.684499 -0.710576
17.8645 25.8365 7.1345 0.632757 0.71345 0 1.8 -0.863514 0.419376 0.280119
24.5968 26.4221 -4.33 0.574672 -0.433 0.194991 -1.51265 -0.708234 0.252647 -0.659222
19.42 27.7017 6.37975 0.717401 0.637975 0 1.8 -0.249834 0.845762 0.471455
18.81 23.868 3.059 0.726511 0.3059 -0.0492875 1.8 -0.123185 -0.896517 -0.425538
14.7247 20.8919 19.6491 0.217876 1.96491 0 -0.8 -0.294632 -0.298305 0.907858
19.3079 26.014 8.59513 0.646269 0.859513 0 4.5 -0.602423 0.798173 -0.00235123
15.0994 21.1583 10.8195 0.362191 1.08195 0 -0.7 -0.872781 0.217201 -0.437124
21.1378 26.6628 9.41463 0.675673 0.941463 0 4.5 0.486749 0.684844 -0.542276
20.9522 21.7752 19.4982 0.217702 1.94983 0 3.8 0.724867 0.681981 -0.0973133
32.4888 26.1959 -1.81562 0.456466 -0.181562 0.494434 -3.9 0.0932382 -0.465921 0.8799
18.805 23.565 5.193 0.716525 0.5193 0.743809 1.8 -0.227996 -0.956753 -0.18067
24.9743 30.0863 -1.66638 0.481551 -0.166637 0 -3.5 -0.317001 0.902445 -0.291724
20.2969 20.964 16.8284 0.22109 1.68284 0 3.8 0.895632 0.442671 -0.0434155
25.1042 30.3866 -0.715563 0.439371 -0.0715562 0 -3.5 -0.24874 0.864769 -0.436237
25.2407 27.876 2.30603 0.712406 0.230603 0 -3.5 0.135641 -0.75653 0.639738
26.5479 28.5456 -5.92188 0.405732 -0.592188 -0.127288 -3.9 -0.335519 0.846233 -0.413905
12.8025 22.3511 16.7292 0.216428 1.67292 0 -0.8 -0.931615 0.354921 0.0782596
31.4182 27.7459 -1.95837 0.503421 -0.195837 0 -3.9 -0.18201 0.269249 0.945715
21.2151 26.2401 8.39475 0.708021 0.839475 0 1.8 0.730175 0.680749 0.0585225
16.391 21.446 19.55 0.213004 1.955 0 -0.8 0.0393961 0.00152212 0.999223
21.877 28.422 3.269 0.712217 0.3269 0.556558 -3.5 0.438551 0.586906 0.680598
20.3559 22.4783 14.4341 0.342725 1.44341 0 4.23088 0.752216 -0.150597 0.641476
17.7812 21.7729 19.7213 0.220083 1.97213 0 -0.154743 -0.357972 0.358526 0.862157
21.5185 29.8995 1.18 0.484425 0.118 0.646608 -3.5 0.446442 0.894088 0.036009
22.2354 23.6518 11.7064 0.534236 1.17064 0 4.5 0.786642 -0.603616 -0.129777
17.7286 23.6389 14.7609 0.279103 1.47609 -0.0322322 -0.7 0.0882667 0.777251 0.622968
25.0198 31.2197 1.43775 0.406222 0.143775 0 -3.5 0.0291073 0.96097 -0.275119
27.8932 27.4414 -1.88931 0.656911 -0.188931 0 -3.78828 0.479097 -0.461842 0.746437
28.0147 29.1915 -1.2605 0.541139 -0.12605 -0.168823 -3.5 0.883005 0.342279 0.321165
31.4531 25.7306 -2.70712 0.519883 -0.270712 0 -3.9 -0.050047 -0.822626 0.566376
19.9976 23.8389 -0.305562 0.6709 -0.0305563 0.0252042 4.2 -0.962684 -0.262164 0.0671548
29.3321 28.3678 -2.48731 0.555246 -0.248731 0 -3.9 0.348799 0.367376 0.862191
17.6194 24.8102 13.7432 0.433096 1.37433 -0.510698 -0.7 -0.522479 0.678389 0.516531
24.6481 25.0935 -4.41831 0.599408 -0.441831 0 4.2 -0.094203 -0.637377 -0.764772
18.7651 22.8325 14.8176 0.240202 1.48176 0 -0.7 0.341109 0.630794 0.696953
14.521 22.2693 19.8477 0.203637 1.98477 0 -0.8 -0.268387 -0.135635 0.953715
29.2669 25.4554 -3.05538 0.573793 -0.305537 0 -3.9 0.0917716 -0.69392 0.71418
21.9338 28.9678 -1.11125 0.500806 -0.111125 -0.0559367 4.2 -0.469493 0.76328 -0.443824
25.7996 24.7908 -3.364 0.628612 -0.3364 0 4.2 0.687724 -0.706229 -0.168155
18.8938 30.5202 2.93681 0.55895 0.293681 0 -3.5 0.231243 0.624124 0.746322
22.3554 25.3156 10.8707 0.620791 1.08707 0 4.5 0.927203 -0.0240788 -0.373785
20.7175 29.5665 0.0565 0.466263 0.00565 0.0439105 -1.87773 0.235944 0.617466 -0.750377
28.1704 29.6809 2.103 0.53988 0.2103 -0.0278715 -3.5 0.993888 0.10314 -0.0393489
18.5389 23.4676 7.51775 0.650479 0.751775 -0.280815 2.66155 -0.554125 -0.811061 -0.187418
18.3822 22.5738 16.6362 0.226759 1.66362 -0.348492 0.0842187 0.496617 0.866981 -0.0414161
21.0952 27.4242 5.86831 0.717863 0.586831 0 1.8 0.371405 0.878262 0.301189
21.3582 24.8263 3.93088 0.782762 0.393088 0 1.8 0.456965 -0.696141 -0.553689
24.0469 26.5269 1.38213 0.72585 0.138213 -0.74814 -3.5 0.556608 -0.506546 0.658482
19.3776 26.6963 7.22463 0.682062 0.722462 0 1.8 -0.204317 0.836074 0.509151
16.9805 31.5888 1.17925 0.370497 0.117925 -0.00954482 -3.5 -0.45127 0.872788 0.186001
20.8669 24.0658 7.597 0.706305 0.7597 0 1.8 0.534791 -0.82526 0.181507
25.0107 27.3207 -5.1145 0.526779 -0.51145 0 -3.9 -0.845137 0.451043 -0.286887
22.4854 25.68 -3.41337 0.575946 -0.341338 0 4.2 -0.411574 0.388323 -0.824507
20.2646 23.9675 4.63875 0.784255 0.463875 -0.00348608 1.8 0.130282 -0.9463 -0.295875
18.5742 31.6928 -0.694687 0.343144 -0.0694688 0.0944894 -3.5 0.137167 0.291887 -0.946566
23.3506 29.6 -0.438625 0.471622 -0.0438625 -0.0424777 -2.40704 -0.472148 0.813225 -0.340209
24.9029 26.3914 0.618875 0.742707 0.0618875 0 -3.5 0.461526 -0.57979 0.671444
18.8242 24.1926 14.2893 0.303056 1.42893 0 -0.7 -0.225137 0.151157 0.96253
19.9544 23.7278 14.5314 0.322624 1.45314 0 4.5 0.0556589 -0.0765469 0.995511
19.8546 31.7837 0.437125 0.454859 0.0437125 0 -3.5 0.721232 0.641485 -0.261383
24.002 29.1281 -2.60175 0.49664 -0.260175 0 -3.5 -0.413907 0.619334 -0.667163
19.9702 16.6624 19.4066 0.20623 1.94066 0 3.8 0.381707 -0.863566 -0.329474
19.5441 28.9452 -0.31325 0.42381 -0.031325 0 -3.5 0.0300386 0.157608 -0.987045
30.631 25.1235 -3.42225 0.554706 -0.342225 0 -3.9 0.0103005 -0.769841 0.638153
22.4688 23.9479 -3.85713 0.603546 -0.385713 0 4.2 -0.426248 -0.140028 -0.893703
22.1356 28.7658 -2.25925 0.548407 -0.225925 -0.13943 4.2 -0.476765 0.589985 -0.651623
30.3436 25.5037 -6.60006 0.419319 -0.660006 0 -3.9 0.166753 -0.525624 -0.834214
13.5249 21.6622 18.7966 0.203152 1.87966 0 -0.8 -0.815441 -0.149335 0.559244
16.9596 23.7189 11.6702 0.422681 1.16702 -0.169527 -0.112425 -0.86289 0.465869 -0.195925
18.6288 28.5826 4.06287 0.625316 0.406287 0 -3.5 -0.295132 0.435477 0.850445
14.7828 20.5335 14.7329 0.239224 1.47329 0 -0.788043 -0.721968 -0.498433 -0.479924
20.4136 23.2637 8.4615 0.66274 0.84615 0 4.5 0.620491 -0.656164 -0.429465
24.9549 23.1008 -2.41788 0.677191 -0.241787 0 4.2 0.654586 -0.752416 -0.0733986
33.8254 26.9982 -2.06262 0.435207 -0.206262 0.194309 -3.9 0.770502 -0.246859 0.587696
16.5581 20.4509 19.5664 0.207351 1.95664 0 3.42078 -0.462484 -0.353803 0.812977
18.4685 26.2564 0.93825 0.664879 0.093825 0 -3.5 -0.727173 -0.476727 -0.493914
25.8049 30.9762 4.72988 0.468797 0.472988 0.766758 -3.5 0.228431 0.106375 0.967731
23.3176 27.1232 2.87462 0.742588 0.287463 -0.430491 -3.5 0.724689 -0.126964 0.677278
25.464 31.9639 3.6275 0.395366 0.36275 0 -3.5 0.232044 0.946775 0.223097
20.4369 24.7689 -1.69062 0.639088 -0.169062 0.455209 4.2 -0.912187 0.0675552 -0.404168
23.9094 23.1445 -4.04156 0.584306 -0.404156 0 4.2 0.247972 -0.61248 -0.750585
19.5828 18.3937 16.1755 0.202332 1.61755 -0.0207916 3.8 0.213836 -0.936608 -0.27756
24.6439 28.1601 -3.2435 0.587729 -0.32435 0 -3.9 -0.661908 0.338614 -0.668744
15.4981 22.0578 11.1164 0.368879 1.11164 0 -0.7 -0.82599 0.541955 -0.155001
22.0661 25.4763 3.408 0.809628 0.3408 0 -3.01893 0.673823 -0.738487 -0.0244865
20.3447 29.8921 2.11256 0.569166 0.211256 0 -3.5 0.491989 0.6297 0.601186
33.251 26.1833 -4.72062 0.388971 -0.472062 0.294343 -3.9 0.776125 -0.479282 -0.40978
20.9046 27.0785 15.1701 0.383727 1.51701 0 4.5 0.0120399 0.707719 0.706391
19.679 22.0592 16.6251 0.215243 1.66251 0 3.8 0.724701 0.687464 -0.0469221
22.0982 26.8486 14.4324 0.434485 1.44324 0 4.5 0.789852 0.340113 0.51035
27.7055 28.033 0.4045 0.641968 0.04045 0 -3.5 0.88811 -0.437472 0.14099
24.1891 31.8013 2.996 0.43501 0.2996 0.0342872 -3.5 -0.455505 0.888911 -0.0484987
22.39 26.9155 11.6263 0.594528 1.16262 0 4.5 0.792867 0.594173 -0.135352
19.6341 24.9604 1.01794 0.730221 0.101794 -0.0384804 -3.16635 -0.444574 -0.894651 -0.0442014
18.9026 22.2571 8.59906 0.576338 0.859906 -0.373937 4.5 -0.342155 -0.634312 -0.693237
21.6261 27.4389 4.70662 0.765823 0.470663 0.223541 -3.5 0.549301 0.780076 0.299584
23.0109 24.6261 13.4233 0.491077 1.34232 0 4.5 0.981186 -0.133734 0.139248
25.9705 25.547 -6.88812 0.471118 -0.688812 -0.127689 -3.9 -0.402944 -0.783645 -0.472796
21.7754 23.5876 14.1331 0.377801 1.41331 0 4.5 0.532 -0.542881 0.649813
20.2206 21.1186 14.1903 0.305252 1.41903 -0.303293 3.8 0.978539 0.205981 -0.00576705
15.2735 19.754 10.8875 0.312923 1.08875 0 -0.7 -0.720424 -0.557272 -0.412841
20.8832 24.7914 15.029 0.332663 1.5029 0 4.5 0.134997 -0.3407 0.93043
13.5771 20.0567 16.5157 0.21555 1.65157 0 -0.8 -0.572092 -0.804299 -0.160667
18.0461 27.4959 3.78531 0.60985 0.378531 0 -1.35194 -0.812878 -0.023011 0.58198
15.0627 23.7927 15.2385 0.26271 1.52385 -0.0527307 -0.8 0.178367 0.932382 -0.314402
18.5201 32.1604 1.57313 0.400355 0.157312 0 -3.5 0.0619501 0.882465 0.466281
12.7119 21.3346 16.1611 0.215609 1.61611 0 -0.8 -0.902962 -0.209498 -0.375194
17.3507 24.4055 9.44125 0.556917 0.944125 0 4.5 -0.901319 0.274496 -0.335077
18.959 27.6035 5.3205 0.661762 0.53205 0 1.8 -0.742741 0.58703 0.322075
20.166 21.5793 13.1462 0.352445 1.31463 0 4.33111 0.907483 -0.414509 0.0682392
20.4663 22.7616 -1.89769 0.741658 -0.189769 0 4.2 -0.849735 -0.282833 -0.444923
19.7349 26.2464 15.1237 0.339944 1.51237 0 4.5 -0.554793 0.198974 0.807846
26.9657 30.5211 -1.14062 0.499223 -0.114063 -0.4674 -3.5 0.172861 0.980037 -0.0982162
18.2582 17.0915 20.9107 0.204713 2.09107 0 3.8 -0.431035 -0.648551 0.627368
22.6549 24.6031 11.9705 0.564568 1.19705 0 4.5 0.97208 -0.0869683 -0.217939
16.744 22.8576 10.3409 0.469547 1.03409 0 -0.255956 -0.703783 0.301933 -0.643059
33.709 28.6801 -3.51362 0.390522 -0.351362 0.120696 -3.9 0.657097 0.69195 -0.299046
26.5068 29.214 -4.31775 0.474691 -0.431775 0 -3.9 -0.435287 0.780456 -0.44879
28.6209 29.5214 -3.09744 0.469659 -0.309744 -0.656515 -3.5 0.521831 0.851991 -0.0424611
19.6241 27.511 12.3116 0.532549 1.23116 0 4.5 -0.471314 0.881947 0.00571803
21.2198 20.7398 20.8758 0.211273 2.08758 0 3.8 0.830127 0.261326 0.492543
20.3932 25.8958 -1.32369 0.57712 -0.132369 0.102285 4.2 -0.807114 0.178807 -0.562667
15.5899 22.0012 13.149 0.326813 1.3149 -0.0439088 -0.7 -0.839104 0.357404 -0.410082
25.8672 30.8792 0.039 0.455185 0.0039 0 -3.5 0.0954285 0.956704 -0.274973
30.5849 28.0177 -5.77962 0.378924 -0.577963 0 -3.9 0.32035 0.747727 -0.581618
17.8651 27.6029 0.743062 0.568572 0.0743062 0 -3.5 -0.711945 -0.440759 -0.546687
26.6314 26.3577 -1.85081 0.68091 -0.185081 0 -3.57202 0.609188 -0.67304 0.419412
29.4977 26.8188 -2.206 0.57003 -0.2206 0 -3.9 -0.0699742 -0.27074 0.960106
23.3219 22.5187 -2.20475 0.740982 -0.220475 0 4.2 0.355196 -0.91008 -0.213521
15.5405 29.3498 0.999125 0.433243 0.0999125 -0.576892 -3.5 -0.899332 -0.292782 -0.324779
21.5187 23.4373 -3.06831 0.682775 -0.306831 0 4.2 -0.561273 -0.250932 -0.788673
18.0559 19.3261 21.0331 0.207689 2.10331 0 3.8 -0.667566 0.080696 0.740165
19.3792 17.4469 18.2419 0.212154 1.82419 0 3.8 0.237051 -0.858567 -0.454609
31.554 27.9164 -5.44763 0.377672 -0.544762 0 -3.9 0.279122 0.694686 -0.66295
20.3961 21.316 18.0481 0.213188 1.80481 0 3.8 0.756078 0.597618 -0.266833
18.7806 26.0221 10.3438 0.555354 1.03438 0 4.5 -0.689499 0.680326 -0.248491
20.5151 19.2981 21.1161 0.206448 2.11161 0 3.8 0.662458 -0.0960221 0.74292
17.6445 18.094 17.0401 0.222856 1.70401 0 3.8 -0.446536 -0.869454 -0.211319
21.5352 24.2917 0.833562 0.776859 0.0833562 0 -0.113907 -0.0880339 -0.541992 0.83576
29.7123 24.6422 -4.59497 0.558167 -0.459497 0 -3.9 -0.0353758 -0.998253 0.047319
23.559 27.1143 -2.92013 0.572628 -0.292013 0 4.2 -0.404658 0.340236 -0.848818
26.1064 27.8143 1.61369 0.698642 0.161369 0 -3.5 0.325532 -0.857358 0.398705
17.6921 19.988 10.1307 0.446509 1.01307 0 -0.7 0.261234 -0.619128 -0.740565
22.784 29.017 2.822 0.677202 0.2822 0.000494609 -3.5 -0.202889 0.402202 0.892787
15.028 20.6467 12.775 0.274933 1.2775 0 -0.7 -0.996403 -0.0845976 -0.00499478
30.397 28.0149 -2.22701 0.515931 -0.222701 0 -3.9 -0.131085 0.351414 0.926998
24.4442 24.7184 0.0458212 0.753756 0.00458212 0 4.2 0.692884 -0.451197 0.562434
3 174 304 355
3 81 355 304
3 355 25 174
3 355 81 142
3 355 142 148
3 231 394 304
3 231 74 394
3 358 74 410
3 171 410 74
3 410 432 358
3 392 246 171
3 37 246 237
3 304 75 270
3 75 104 8
3 75 8 270
3 104 234 8
3 270 8 392
3 234 106 112
3 234 112 236
3 106 215 112
3 112 215 271
3 271 215 79
3 292 323 355
3 25 355 323
3 323 292 307
3 292 362 307
3 150 362 94
3 292 148 362
3 143 148 142
3 410 37 356
3 356 371 410
3 356 403 371
3 356 237 212
3 237 320 212
3 320 313 345
3 320 345 135
3 135 345 399
3 399 345 389
3 313 237 85
3 85 237 246
3 85 246 392
3 332 236 201
3 376 332 201
3 271 241 201
3 422 201 241
3 79 241 271
3 79 310 241
3 310 166 241
3 166 310 144
3 144 150 419
3 144 419 117
3 94 69 419
3 94 183 69
3 69 183 43
3 183 94 105
3 105 223 425
3 21 223 143
3 21 358 264
3 253 264 206
3 92 78 268
3 268 78 273
3 58 206 190
3 388 190 432
3 190 388 178
3 388 210 430
3 388 430 178
3 178 430 125
3 430 210 181
3 210 403 181
3 181 403 382
3 382 403 395
3 395 403 356
3 26 395 76
3 26 76 129
3 129 76 288
3 395 423 76
3 288 76 336
3 293 423 204
3 45 423 138
3 45 138 212
3 212 159 45
3 0 45 159
3 212 320 3
3 46 159 31
3 46 407 159
3 377 12 103
3 247 384 377
3 377 384 12
3 346 386 389
3 214 386 309
3 386 346 309
3 387 111 376
3 111 322 332
3 168 387 300
3 422 300 376
3 64 166 65
3 408 225 424
3 260 424 209
3 225 117 424
3 424 117 209
3 117 419 209
3 260 158 172
3 420 349 218
3 401 69 43
3 218 93 420
3 420 93 425
3 93 183 425
3 369 420 425
3 369 425 268
3 369 268 273
3 273 67 369
3 369 67 188
3 67 243 188
3 188 243 39
3 188 55 369
3 369 55 420
3 420 55 134
3 420 134 349
3 349 134 116
3 116 134 172
3 55 39 4
3 39 422 4
3 4 422 255
3 39 300 422
3 134 255 172
3 255 424 172
3 7 277 168
3 387 168 277
3 277 7 17
3 17 273 18
3 18 273 78
3 152 277 18
3 125 430 152
3 152 430 250
3 152 250 277
3 254 430 181
3 254 181 382
3 254 382 36
3 254 36 157
3 19 254 157
3 359 220 36
3 359 96 220
3 151 338 238
3 238 338 230
3 359 382 331
3 359 331 285
3 230 285 298
3 230 298 341
3 298 70 341
3 298 202 70
3 70 202 222
3 202 109 222
3 222 109 226
3 109 396 226
3 109 22 396
3 336 290 288
3 288 290 22
3 295 82 204
3 306 44 160
3 160 44 286
3 153 126 295
3 295 126 306
3 126 153 328
3 380 279 41
3 279 423 0
3 279 407 41
3 41 407 242
3 242 103 41
3 41 103 380
3 402 131 384
3 131 328 380
3 23 77 214
3 23 214 397
3 312 23 220
3 157 220 23
3 286 44 151
3 328 96 196
3 160 286 164
3 160 333 194
3 63 334 372
3 334 119 341
3 341 291 193
3 177 193 381
3 381 258 363
3 258 28 363
3 226 163 28
3 226 391 163
3 226 396 391
3 396 22 290
3 396 146 357
3 333 383 146
3 115 383 333
3 63 372 115
3 184 115 372
3 372 34 184
3 365 184 34
3 180 73 60
3 73 32 302
3 32 365 335
3 335 302 32
3 335 249 170
3 249 34 177
3 249 177 426
3 249 426 170
3 177 381 426
3 318 409 367
3 381 363 283
3 381 283 318
3 136 156 284
3 136 284 417
3 156 278 284
3 278 391 357
3 278 27 284
3 393 327 145
3 373 145 327
3 239 373 211
3 239 211 357
3 357 146 239
3 180 98 431
3 99 314 267
3 314 366 259
3 379 272 366
3 364 60 198
3 80 207 344
3 207 80 414
3 207 414 113
3 113 378 207
3 91 124 59
3 59 124 35
3 344 124 80
3 344 170 434
3 434 170 133
3 133 170 118
3 118 122 133
3 133 122 35
3 35 122 360
3 416 257 227
3 398 192 418
3 398 367 192
3 409 187 367
3 208 409 283
3 350 208 121
3 283 121 208
3 121 283 413
3 208 350 15
3 15 325 208
3 325 281 208
3 149 350 203
3 269 203 350
3 121 269 350
3 203 269 251
3 269 121 413
3 251 269 136
3 413 136 269
3 342 219 280
3 219 123 337
3 219 337 280
3 83 284 27
3 1 393 337
3 327 393 1
3 393 347 54
3 347 342 54
3 149 173 329
3 228 379 99
3 99 379 314
3 42 267 343
3 343 267 301
3 84 343 299
3 301 299 343
3 301 267 411
3 301 411 400
3 314 114 411
3 114 259 275
3 114 275 411
3 366 107 259
3 259 107 120
3 120 107 198
3 107 364 198
3 275 330 20
3 20 330 189
3 20 189 378
3 189 429 378
3 378 429 207
3 275 378 316
3 316 378 137
3 316 137 319
3 315 113 414
3 324 415 274
3 415 324 351
3 351 324 427
3 24 5 427
3 24 185 155
3 155 185 11
3 11 72 155
3 2 326 360
3 59 360 326
3 185 274 14
3 2 368 326
3 326 368 321
3 360 416 368
3 416 128 90
3 128 418 90
3 90 418 352
3 340 352 192
3 265 352 340
3 232 340 187
3 428 232 281
3 428 353 348
3 348 353 84
3 353 325 84
3 370 348 191
3 299 282 348
3 400 275 316
3 400 316 262
3 97 179 282
3 405 282 179
3 405 179 50
3 406 179 97
3 406 319 176
3 406 316 319
3 433 319 415
3 182 305 297
3 52 297 305
3 317 297 52
3 317 351 276
3 276 169 317
3 297 317 169
3 276 374 240
3 354 161 427
3 354 252 205
3 205 252 287
3 33 205 287
3 5 155 252
3 287 252 155
3 385 287 155
3 385 266 132
3 405 339 370
3 339 289 370
3 339 167 289
3 289 167 321
3 289 321 265
3 167 197 72
3 167 72 321
3 265 321 368
3 191 405 370
3 191 282 405
3 95 29 303
3 224 303 29
3 233 175 95
3 421 412 195
3 412 175 195
3 404 199 256
3 199 66 245
3 256 199 245
3 305 40 245
3 40 182 162
3 361 162 182
3 240 361 169
3 361 240 51
3 229 51 240
3 229 404 51
3 248 404 229
3 248 374 100
3 374 147 47
3 47 354 127
3 141 127 354
3 205 33 53
3 53 30 205
3 29 53 33
3 53 175 30
3 412 421 141
3 421 404 248
3 404 162 51
3 51 162 361
3 19 38 250
3 250 38 397
3 250 397 277
3 277 397 387
3 358 71 74
3 410 246 37
3 246 410 171
3 75 304 174
3 234 392 8
3 307 79 215
3 307 215 139
3 105 94 362
3 105 362 102
3 105 102 223
3 102 362 148
3 143 223 102
3 143 102 148
3 206 264 432
3 432 264 358
3 212 138 356
3 3 320 135
3 3 135 31
3 346 389 345
3 322 345 313
3 332 322 16
3 332 16 236
3 313 16 322
3 234 236 165
3 392 234 165
3 392 165 85
3 313 85 165
3 313 165 16
3 16 165 236
3 310 79 307
3 150 144 310
3 150 310 362
3 362 310 307
3 183 105 425
3 268 425 48
3 268 48 92
3 92 48 253
3 223 48 425
3 264 253 48
3 21 264 223
3 223 264 48
3 331 382 26
3 26 382 395
3 129 331 26
3 293 336 76
3 423 293 76
3 45 0 423
3 159 3 31
3 3 159 212
3 309 387 397
3 309 397 214
3 111 387 309
3 322 111 309
3 322 309 346
3 345 322 346
3 39 243 300
3 260 172 424
3 134 4 255
3 4 134 55
3 18 277 17
3 430 254 250
3 250 254 19
3 220 157 36
3 196 96 359
3 44 196 338
3 44 338 151
3 338 196 359
3 359 285 338
3 338 285 230
3 336 293 82
3 82 293 204
3 194 336 160
3 160 336 306
3 306 82 295
3 82 306 336
3 196 44 306
3 196 306 126
3 126 328 196
3 384 131 12
3 12 131 103
3 103 131 380
3 402 328 131
3 77 23 312
3 177 34 372
3 193 177 372
3 193 372 334
3 426 381 318
3 381 193 258
3 258 193 291
3 163 363 28
3 357 391 396
3 308 383 184
3 308 184 365
3 184 383 115
3 431 73 180
3 365 431 308
3 73 431 32
3 32 431 365
3 302 335 344
3 170 344 335
3 118 170 426
3 283 363 413
3 413 363 163
3 311 373 431
3 228 431 98
3 308 431 239
3 239 431 373
3 207 429 344
3 344 429 302
3 315 414 274
3 315 274 415
3 326 14 414
3 414 91 326
3 59 326 91
3 414 14 274
3 133 35 124
3 416 360 122
3 416 122 257
3 232 187 409
3 232 409 281
3 208 281 409
3 219 342 203
3 15 350 329
3 15 329 325
3 329 350 149
3 311 329 173
3 99 42 228
3 431 228 140
3 431 140 311
3 42 140 228
3 373 311 173
3 329 311 140
3 329 140 325
3 325 140 343
3 343 140 42
3 84 325 343
3 267 314 411
3 275 259 330
3 378 275 20
3 319 315 415
3 315 319 137
3 315 137 113
3 113 137 378
3 155 5 24
3 72 11 321
3 321 11 326
3 326 11 14
3 14 11 185
3 352 418 192
3 340 232 428
3 348 370 428
3 282 299 400
3 299 301 400
3 233 179 406
3 195 233 406
3 195 406 176
3 240 169 276
3 405 303 339
3 428 370 289
3 428 289 340
3 53 29 95
3 53 95 175
3 233 195 175
3 182 40 305
3 100 421 248
3 404 421 199
3 390 81 394
3 81 304 394
3 142 81 390
3 215 106 61
3 215 61 87
3 106 104 61
3 61 104 221
3 87 61 221
3 87 221 25
3 323 87 25
3 87 323 139
3 87 139 215
3 221 104 75
3 221 75 174
3 25 221 174
3 104 106 234
3 355 148 292
3 74 71 394
3 394 71 390
3 390 143 142
3 171 74 231
3 231 101 171
3 392 171 101
3 237 313 320
3 237 356 37
3 270 101 231
3 270 231 304
3 101 270 392
3 271 62 112
3 271 201 62
3 236 62 201
3 62 236 112
3 323 307 139
3 150 94 419
3 71 358 390
3 390 358 21
3 390 21 143
3 206 130 253
3 253 130 92
3 92 130 261
3 92 261 78
3 261 130 58
3 58 130 206
3 432 190 206
3 210 388 294
3 388 432 294
3 371 403 294
3 371 294 432
3 410 371 432
3 294 403 210
3 395 356 138
3 138 423 395
3 46 31 399
3 399 31 135
3 399 375 46
3 46 375 242
3 46 242 407
3 242 375 377
3 376 111 332
3 387 376 300
3 201 422 376
3 296 422 217
3 217 422 241
3 217 241 166
3 144 65 166
3 166 64 217
3 217 408 296
3 217 64 408
3 225 65 117
3 225 408 64
3 225 64 65
3 65 144 117
3 209 86 401
3 209 401 244
3 209 244 260
3 209 419 86
3 218 349 244
3 218 244 401
3 86 69 401
3 419 69 86
3 244 158 260
3 158 244 349
3 43 93 218
3 43 218 401
3 43 183 93
3 168 67 7
3 7 67 273
3 7 273 17
3 243 168 300
3 168 243 67
3 9 261 125
3 125 152 9
3 9 152 18
3 9 18 78
3 9 78 261
3 125 261 178
3 178 261 58
3 178 58 190
3 359 36 382
3 331 108 285
3 298 285 108
3 202 298 108
3 129 288 108
3 129 108 331
3 288 22 109
3 288 109 202
3 288 202 108
3 279 186 204
3 279 204 423
3 204 186 295
3 295 186 153
3 186 279 380
3 0 159 407
3 0 407 279
3 377 103 242
3 384 247 386
3 384 386 77
3 384 77 312
3 384 312 402
3 216 399 389
3 216 389 377
3 377 389 247
3 216 377 375
3 216 375 399
3 214 77 386
3 247 389 386
3 397 38 23
3 23 38 157
3 157 38 19
3 188 39 55
3 255 296 408
3 408 424 255
3 255 422 296
3 116 172 158
3 116 158 349
3 96 328 6
3 220 96 6
3 220 6 312
3 312 6 402
3 402 6 328
3 263 334 63
3 263 63 200
3 263 200 286
3 263 286 151
3 263 151 238
3 286 200 164
3 333 160 164
3 119 334 263
3 119 263 238
3 341 238 230
3 238 341 119
3 291 222 258
3 222 28 258
3 291 70 222
3 28 222 226
3 70 291 341
3 290 336 194
3 396 290 146
3 146 290 333
3 333 290 194
3 328 153 380
3 380 153 186
3 115 200 63
3 200 115 164
3 164 115 333
3 249 365 34
3 249 335 365
3 341 193 334
3 318 13 235
3 318 367 398
3 318 398 13
3 318 235 426
3 391 278 156
3 391 156 163
3 163 156 413
3 413 156 136
3 278 213 27
3 211 278 357
3 278 211 213
3 213 211 327
3 327 211 373
3 383 308 146
3 239 146 308
3 60 364 88
3 180 60 88
3 180 88 272
3 314 379 366
3 302 429 89
3 89 60 302
3 60 73 302
3 60 89 198
3 80 124 414
3 414 124 91
3 110 257 122
3 110 122 118
3 110 118 426
3 110 426 49
3 110 49 257
3 13 398 227
3 13 227 235
3 257 235 227
3 257 49 235
3 235 49 426
3 318 283 409
3 219 251 417
3 219 417 123
3 10 123 417
3 284 10 417
3 10 284 83
3 10 83 337
3 10 337 123
3 251 136 417
3 1 213 327
3 1 83 213
3 213 83 27
3 83 1 337
3 149 342 347
3 347 393 145
3 342 149 203
3 173 149 347
3 145 173 347
3 145 373 173
3 272 379 98
3 272 98 180
3 379 228 98
3 99 267 42
3 314 259 114
3 364 272 88
3 364 107 366
3 366 272 364
3 330 120 68
3 330 259 120
3 68 120 198
3 68 189 330
3 68 198 89
3 68 89 429
3 68 429 189
3 324 274 185
3 427 324 185
3 24 427 185
3 59 35 360
3 360 368 2
3 128 227 398
3 128 398 418
3 227 128 416
3 187 340 192
3 187 192 367
3 353 428 281
3 325 353 281
3 251 219 203
3 54 342 280
3 280 393 54
3 393 280 337
3 299 348 84
3 275 400 411
3 262 406 97
3 316 406 262
3 97 282 400
3 97 400 262
3 52 305 415
3 305 433 415
3 52 415 317
3 317 415 351
3 154 147 374
3 154 374 276
3 154 276 351
3 427 154 351
3 161 154 427
3 154 161 147
3 5 252 427
3 354 427 252
3 224 266 339
3 339 266 167
3 167 266 385
3 167 385 197
3 72 197 155
3 197 385 155
3 224 339 303
3 368 90 352
3 368 352 265
3 90 368 416
3 340 289 265
3 191 348 282
3 179 233 50
3 405 50 303
3 303 50 95
3 50 233 95
3 319 245 176
3 176 245 66
3 176 66 195
3 195 66 421
3 421 66 199
3 169 361 297
3 361 182 297
3 229 240 374
3 229 374 248
3 354 47 161
3 161 47 147
3 205 141 354
3 33 56 57
3 29 57 224
3 57 56 132
3 57 132 224
3 29 33 57
3 56 33 287
3 385 56 287
3 56 385 132
3 132 266 224
3 141 205 30
3 141 30 412
3 175 412 30
3 162 404 256
3 256 245 40
3 256 40 162
3 374 47 100
3 100 47 127
3 127 421 100
3 421 127 141
3 245 319 433
3 245 433 305
3 124 344 434
3 124 434 133
