ply
format ascii 1.0
comment Generated by PyMesh
element vertex 194
property float x
property float y
property float z
property float iface
property float charge
property float hbond
property float hphob
property float nx
property float ny
property float nz
element face 384
property list uchar int vertex_indices
end_header
-14.2215 -18.7655 -31.368 0.443508 -3.1368 0.0103383 -4.5 -0.466132 -0.341609 -0.816103
-21.618 -25.3165 -25.7575 0.385743 -2.57575 0.581993 -3.9 -0.585499 -0.654523 -0.47832
-19.914 -17.287 -28.0835 0.425652 -2.80835 0 -3.9 -0.725769 0.54047 -0.425618
-19.028 -24.8027 -23.5737 0.371115 -2.35737 0.301212 -3.9 0.71001 -0.38543 0.589347
-15.6265 -16.1285 -25.8815 0.493123 -2.58815 -0.594614 -4.5 0.437598 -0.5628 0.701259
-13.1973 -17.8643 -28.254 0.462927 -2.8254 0 -4.5 -0.152892 -0.248105 0.956592
-14.6493 -16.0085 -27.1232 0.496202 -2.71233 0 -4.5 0.4301 -0.652866 0.623522
-17.5292 -17.0613 -28.3892 0.426314 -2.83892 0 -3.9 -0.0169165 0.151782 -0.988269
-14.107 -12.2255 -29.895 0.458027 -2.9895 0 -4.5 0.275594 0.76662 -0.57995
-12.8165 -13.8097 -29.6472 0.475833 -2.96473 0 -4.5 0.82292 0.547561 0.151592
-18.6117 -19.0847 -30.9883 0.426934 -3.09882 -0.243466 -3.9 0.293846 0.509633 -0.808659
-10.996 -15.8325 -30.699 0.466099 -3.0699 0 -4.5 0.698232 0.184129 -0.691786
-15.01 -17.959 -28.882 0.469918 -2.8882 0 -4.5 0.0632319 -0.328904 0.942244
-13.422 -11.274 -27.9958 0.487034 -2.79958 0 1.8 0.621438 0.156803 -0.767612
-16.7792 -22.5697 -24.9953 0.394891 -2.49953 0 -3.9 0.969496 -0.0805928 0.231476
-10.4975 -20.125 -28.7388 0.369007 -2.87387 0.190964 -4.5 0.566633 -0.760623 0.316828
-16.2533 -11.4888 -27.613 0.494342 -2.7613 -0.600836 1.2812 -0.783379 0.617036 -0.074722
-15.3155 -13.2207 -23.5667 0.570834 -2.35667 0 1.8 -0.862212 -0.338264 0.377053
-15.8842 -10.786 -26.8948 0.510517 -2.68948 -0.0920464 1.8 -0.865699 0.479975 0.142089
-10.2983 -16.0903 -29.7787 0.445977 -2.97787 0.717276 -4.5 0.923043 0.384228 -0.01899
-13.175 -20.4438 -30.3678 0.431333 -3.03678 0.603684 -4.5 -0.106732 -0.969573 -0.22031
-19.858 -25.2243 -22.966 0.36015 -2.2966 0.835198 -3.9 0.284734 -0.394359 0.873732
-21.147 -20.869 -29.416 0.392868 -2.9416 -0.956258 -3.9 -0.735186 -0.321471 -0.59679
-12.488 -9.24 -26.056 0.558623 -2.6056 0 1.8 0.164674 0.968973 -0.18432
-18.3447 -21.002 -29.6803 0.407871 -2.96802 0 -3.9 0.573358 -0.62638 -0.528118
-15.3345 -11.2125 -23.3993 0.603211 -2.33993 0 1.8 -0.715736 0.50145 0.486076
-19.287 -25.7073 -26.1147 0.388725 -2.61147 0 -3.9 0.0571827 -0.956758 -0.285209
-20.8372 -23.0198 -27.2035 0.400274 -2.72035 0 -3.9 -0.770302 -0.150926 -0.619561
-10.5328 -19.8035 -30.06 0.451518 -3.006 0 -4.5 0.587033 -0.63757 -0.498895
-11.1945 -19.5333 -28.009 0.440404 -2.8009 0 -4.5 0.0408221 -0.45681 0.888627
-13.194 -9.1865 -25.142 0.584745 -2.5142 0 1.8 -0.260963 0.947579 0.184369
-19.6565 -19.3365 -30.9923 0.413288 -3.09923 -0.353673 -3.9 -0.415275 0.167743 -0.894097
-15.2662 -10.6228 -25.9573 0.544521 -2.59573 -0.0506462 1.8 -0.692076 0.625094 0.360955
-13.663 -15.2 -26.8455 0.490878 -2.68455 0.0868051 -4.5 0.603018 -0.52377 0.601693
-12.2393 -13.7677 -25.1658 0.578373 -2.51658 0 1.8 0.70133 -0.707393 0.0879327
-14.5002 -10.48 -23.9708 0.623541 -2.39707 0 1.8 -0.510749 0.777937 0.36599
-19.2415 -20.96 -30.2782 0.408343 -3.02783 -0.181179 -3.9 -0.0814308 -0.719697 -0.689497
-14.092 -10.5457 -28.2335 0.491441 -2.82335 0 1.8 0.231018 0.614445 -0.754379
-14.5732 -16.1712 -31.7235 0.441198 -3.17235 0 -4.5 -0.614795 0.0318942 -0.788042
-12.5562 -10.7563 -27.454 0.496983 -2.7454 0 1.8 0.547106 0.125225 -0.827644
-10.6407 -16.9535 -28.6928 0.493844 -2.86928 0.101743 -4.5 0.783219 0.256236 0.56649
-15.1685 -9.88525 -27.103 0.518641 -2.7103 -0.184345 1.8 -0.395999 0.914771 -0.0798727
-12.8455 -9.75775 -27.1465 0.551829 -2.71465 0 1.8 0.1774 0.737573 -0.651548
-19.8925 -18.6392 -25.8668 0.42337 -2.58667 0.0538613 -3.9 -0.763399 0.34854 0.543822
-20.8655 -19.1122 -29.08 0.430544 -2.908 -0.0950663 -3.9 -0.762181 0.58309 -0.281222
-21.4153 -24.3218 -26.4422 0.382464 -2.64422 0.0155943 -3.9 -0.767618 -0.147623 -0.623675
-11.411 -14.8422 -30.4463 0.476825 -3.04463 0 -4.5 0.704784 0.650016 -0.284181
-20.0786 -21.9617 -28.4428 0.414711 -2.84427 -0.892561 -3.9 -0.339892 -0.735575 -0.586006
-17.6458 -20.2335 -29.21 0.435139 -2.921 -0.16282 -3.9 0.766495 -0.348987 -0.53916
-17.0123 -22.1701 -26.034 0.409052 -2.6034 0 -3.9 0.980099 -0.160207 -0.117218
-11.115 -9.928 -25.633 0.5846 -2.5633 0 1.8 0.798266 0.563326 -0.213154
-16.0344 -12.7537 -29.8673 0.429069 -2.98673 0 -4.5 -0.502199 0.552212 -0.665475
-20.1395 -21.1945 -29.6893 0.395092 -2.96892 -0.524003 -3.9 -0.277828 -0.707434 -0.649884
-20.439 -19.9005 -26.682 0.40466 -2.6682 0 -3.9 -0.87586 0.227659 0.425489
-20.901 -25.333 -23.2425 0.363377 -2.32425 0.0342664 -3.9 -0.447193 -0.583677 0.677746
-15.635 -12.1135 -24.0018 0.568537 -2.40018 0 1.8 -0.979587 0.0535865 0.193745
-14.0988 -9.72762 -26.7474 0.541174 -2.67474 -0.557074 1.8 -0.293958 0.945922 -0.137191
-18.508 -18.138 -29.245 0.450979 -2.9245 0 -3.9 0.145124 0.7204 -0.678205
-19.953 -22.7355 -27.7897 0.401485 -2.77898 0 -3.9 -0.276049 -0.392288 -0.877443
-19.7565 -19.3626 -24.9389 0.396766 -2.49389 0 -3.9 -0.54212 0.446823 0.711657
-18.4445 -19.454 -24.7097 0.419221 -2.47097 0 -3.9 -0.00278255 0.364363 0.931253
-20.0236 -17.0624 -27.0858 0.441966 -2.70858 0 -3.9 -0.836665 0.532873 0.126644
-16.1535 -12.1097 -26.8237 0.501357 -2.68237 -0.00586142 1.8 -0.848872 0.29554 0.43826
-10.8757 -15.795 -28.8055 0.49393 -2.88055 0.511145 -4.5 0.600043 0.444721 0.66496
-18.5556 -20.7725 -24.4522 0.39893 -2.44523 0 -3.9 0.107118 0.343179 0.933142
-9.84287 -18.7479 -29.9688 0.444888 -2.99688 0 -4.5 0.857401 -0.122121 -0.49995
-20.1507 -25.7611 -23.8594 0.369205 -2.38594 0.219932 -3.9 0.175209 -0.947459 0.267625
-15.7179 -14.3494 -31.0874 0.443584 -3.10874 0 -4.5 -0.489397 0.0458983 -0.870852
-15.2257 -11.0696 -25.0155 0.577756 -2.50155 0 1.8 -0.859355 0.48983 0.146888
-19.7323 -18.6045 -30.2375 0.42495 -3.02375 0 -3.9 -0.299474 0.793902 -0.529183
-15.1764 -10.3511 -28.0706 0.495583 -2.80706 -0.554283 1.8 -0.410799 0.657971 -0.631125
-13.1835 -12.653 -28.2025 0.482896 -2.82025 0 -3.39051 0.861175 0.24495 -0.445395
-10.4954 -18.4775 -27.9363 0.47368 -2.79363 0 -4.5 0.43464 0.0491923 0.89926
-18.9456 -17.1905 -28.6374 0.445445 -2.86374 0 -3.9 -0.15797 0.546147 -0.82266
-12.759 -19.003 -28.405 0.459774 -2.8405 0 -4.5 -0.0978086 -0.377342 0.920895
-16.343 -17.0658 -28.6091 0.432742 -2.86091 0 -4.5 -0.324561 -0.0823806 -0.94227
-16.549 -19.915 -27.2199 0.433924 -2.72199 0 -3.9 0.994367 -0.0840942 -0.0645164
-13.432 -15.102 -31.892 0.449643 -3.1892 0 -4.5 -0.103251 0.357341 -0.928249
-21.693 -23.3372 -25.164 0.38592 -2.5164 0 -3.9 -0.792999 0.585389 -0.168739
-18.2393 -16.1297 -26.4727 0.453631 -2.64727 -0.225031 -4.17077 -0.525595 0.410123 0.745352
-20.3105 -23.9191 -27.5828 0.40382 -2.75828 0 -3.9 -0.340426 -0.361164 -0.868142
-14.9584 -12.2054 -22.8554 0.61043 -2.28554 0 1.8 -0.580433 -0.064641 0.811738
-9.90238 -19.2561 -28.7833 0.452235 -2.87832 0 -4.5 0.854906 -0.391905 0.339922
-12.4195 -11.85 -22.8885 0.63022 -2.28885 0 1.8 0.558347 0.190041 0.807547
-14.0731 -11.8024 -28.7507 0.473181 -2.87508 -0.0415011 -1.19635 0.441722 0.614069 -0.654066
-17.1951 -23.4721 -24.6934 0.37701 -2.46934 0 -3.9 0.800064 -0.516134 0.305782
-14.4156 -13.8039 -23.1402 0.587423 -2.31402 0 1.8 -0.297836 -0.670346 0.679654
-12.1823 -13.2432 -26.4965 0.527907 -2.64965 0 1.8 0.785737 -0.484233 -0.384884
-18.3223 -14.7552 -27.5112 0.449353 -2.75113 0 -4.5 -0.950304 0.30949 0.0337445
-13.3199 -12.9668 -22.4764 0.644789 -2.24764 0 1.8 0.218323 -0.314373 0.923853
-21.2145 -21.4875 -28.444 0.397047 -2.8444 -0.713902 -3.9 -0.690463 -0.684647 -0.233493
-13.0612 -13.7835 -23.4335 0.619198 -2.34335 0 1.8 0.353985 -0.855485 0.377942
-14.2735 -10.0425 -25.2105 0.571719 -2.52105 0 1.8 -0.612068 0.765507 0.198425
-12.18 -9.6235 -24.286 0.632692 -2.4286 0 1.8 0.388581 0.773421 0.500824
-10.8139 -11.0968 -25.7211 0.579947 -2.57211 0 1.8 0.97574 -0.104504 -0.192382
-16.3065 -15.9185 -29.1645 0.423032 -2.91645 0 -4.5 -0.609552 -0.393398 -0.688248
-14.9325 -15.0697 -31.0968 0.450176 -3.10967 0 -4.5 -0.470027 0.0495915 -0.881258
-14.6163 -17.6855 -31.3503 0.451481 -3.13503 0.432713 -4.5 -0.606859 -0.234726 -0.759359
-20.5569 -25.1345 -26.2285 0.384152 -2.62285 0 -3.9 -0.272811 -0.801014 -0.532871
-13.2515 -12.8135 -29.6423 0.442372 -2.96423 0 -4.5 0.764488 0.55857 -0.321804
-14.9745 -15.3435 -26.0385 0.528595 -2.60385 0.404585 -4.5 0.43727 -0.664038 0.606505
-17.6011 -14.9666 -29.0123 0.451307 -2.90123 0 -4.5 -0.751263 -0.0745017 -0.655784
-11.752 -9.727 -26.6252 0.566683 -2.66252 0 1.8 0.590468 0.638037 -0.494223
-19.4503 -21.4864 -23.8209 0.390185 -2.38209 0 -3.9 0.0137805 0.487216 0.873173
-20.6579 -19.9686 -29.9404 0.409037 -2.99404 -0.447562 -3.9 -0.68275 -0.0464254 -0.729175
-13.4493 -17.4783 -31.522 0.460278 -3.1522 0 -4.5 0.0549335 -0.217803 -0.974446
-17.9597 -16.1026 -28.3318 0.430954 -2.83317 0 -4.36379 -0.498498 0.0333835 -0.866248
-11.5142 -11.5285 -24.0028 0.612794 -2.40027 0 1.8 0.76534 0.0652783 0.640307
-19.4622 -23.6294 -23.3465 0.375562 -2.33465 0 -3.9 0.360545 0.135736 0.922813
-18.1103 -25.213 -26.0305 0.386453 -2.60305 0 -3.9 0.771595 -0.599841 -0.211736
-16.2033 -17.6029 -28.0275 0.44657 -2.80275 0 -4.3766 0.538396 -0.604768 0.586844
-18.7769 -16.1084 -27.3867 0.45776 -2.73868 0 -3.9 -0.702448 0.699916 -0.129167
-16.6364 -20.4993 -25.974 0.414183 -2.5974 0 -3.9 0.976307 -0.0370356 0.213195
-16.3522 -15.4923 -25.4543 0.5063 -2.54542 -0.00793586 -4.5 -0.153638 -0.17868 0.971838
-19.1741 -21.6254 -28.9766 0.409822 -2.89766 0 -3.9 0.105047 -0.801582 -0.588584
-18.6275 -20.207 -30.95 0.415355 -3.095 -0.0184127 -3.9 0.230743 -0.434221 -0.870752
-10.9625 -10.3284 -24.6513 0.607215 -2.46513 0 1.8 0.901142 0.181368 0.393763
-12.846 -14.1125 -25.9883 0.5294 -2.59882 0 1.8 0.624927 -0.777905 0.0657943
-19.8095 -18.129 -28.8768 0.413047 -2.88768 0 -3.9 -0.563999 0.677565 -0.472028
-21.628 -19.9535 -28.148 0.415319 -2.8148 -0.923618 -3.9 -0.983814 0.176482 0.0310487
-13.7091 -19.6301 -31.0635 0.461987 -3.10635 0 -4.5 -0.265437 -0.571065 -0.776806
-16.6325 -14.0387 -30.1747 0.426579 -3.01747 0 -4.5 -0.739095 -0.0287557 -0.672987
-20.0588 -21.1922 -24.8293 0.39833 -2.48292 0 -3.9 -0.640454 0.456114 0.617883
-11.3681 -20.5231 -29.1943 0.430701 -2.91943 0.891203 -4.5 0.0794544 -0.995927 0.0426128
-11.4705 -10.9963 -26.5125 0.544809 -2.65125 0 1.8 0.742258 -0.0159449 -0.669925
-13.5671 -16.3154 -32.0433 0.475288 -3.20432 0 -4.5 0.0463425 -0.152534 -0.987211
-16.5924 -12.1124 -28.9032 0.454996 -2.89033 0 -4.5 -0.638853 0.642339 -0.4234
-11.9336 -16.8626 -31.3169 0.450404 -3.13169 0 -4.5 0.416552 -0.0793442 -0.905643
-18.7305 -25.3855 -24.8315 0.375201 -2.48315 0 -3.9 0.544864 -0.798443 0.25615
-11.6129 -12.4046 -24.6775 0.604374 -2.46775 0 1.8 0.899524 -0.379263 0.216832
-14.0935 -14.1167 -31.0753 0.455932 -3.10753 0 -4.5 -0.0778991 0.540484 -0.83774
-10.5929 -17.2081 -30.3587 0.443703 -3.03587 0 -4.5 0.8147 0.169126 -0.554671
-17.24 -15.4198 -25.9333 0.478776 -2.59332 -0.154473 -4.5 -0.534624 0.110884 0.837784
-20.2939 -20.4438 -25.7623 0.403992 -2.57623 0 -3.9 -0.911011 0.241433 0.334319
-15.9808 -15.3112 -30.1151 0.434655 -3.01151 0 -4.5 -0.6728 -0.413718 -0.613333
-19.9545 -25.6802 -25.0665 0.386423 -2.50665 0 -3.9 -0.033623 -0.993463 -0.109093
-16.2633 -17.0037 -26.6814 0.488585 -2.66814 -0.144389 -4.5 0.526597 -0.641514 0.557812
-12.7925 -14.402 -28.5535 0.482174 -2.85535 0 -4.5 0.873238 0.429847 0.229537
-11.4948 -19.9452 -30.3075 0.458061 -3.03075 0 -4.5 0.212153 -0.733111 -0.646172
-17.405 -19.4147 -25.0481 0.424333 -2.50481 0 -3.9 0.580806 0.332138 0.743201
-20.3903 -18.5992 -27.4428 0.413187 -2.74428 -0.0677912 -3.9 -0.909058 0.385953 0.157015
-11.8731 -14.8538 -29.3934 0.483847 -2.93934 0 -4.5 0.624251 0.717867 0.308184
-17.0169 -13.4714 -29.2561 0.442294 -2.92561 0 -4.5 -0.812254 0.36518 -0.454848
-17.484 -14.3265 -26.201 0.47262 -2.6201 0 -4.5 -0.65267 0.328589 0.68268
-21.1056 -23.1002 -26.1314 0.385011 -2.61314 0 -3.9 -0.930305 0.278031 -0.239231
-22.2272 -24.4155 -24.9279 0.37191 -2.49279 0.32214 -3.9 -0.998883 -0.0312802 -0.0354137
-20.6063 -22.3399 -23.7652 0.381347 -2.37652 0.367096 -3.9 -0.498813 0.651526 0.571577
-12.4362 -12.1705 -27.1411 0.575284 -2.71411 0 1.8 0.733465 -0.112276 -0.67039
-13.836 -11.599 -22.6076 0.625236 -2.26076 0 1.8 -0.0541974 0.45897 0.886797
-15.0366 -12.952 -30.6263 0.446658 -3.06263 0 -4.5 -0.0211755 0.518729 -0.854676
-18.8633 -23.2765 -27.6537 0.410109 -2.76537 0 -3.9 0.216526 -0.530233 -0.819737
-18.342 -22.7221 -23.8018 0.385682 -2.38018 0 -3.9 0.488278 0.018817 0.872485
-21.4709 -25.6297 -24.5194 0.378171 -2.45194 0.163371 -3.9 -0.537055 -0.835531 0.116016
-12.7419 -20.1489 -29.1745 0.437799 -2.91745 0.212638 -4.5 -0.120933 -0.834892 0.536964
-12.1709 -15.4239 -31.5594 0.483632 -3.15594 0 -4.5 0.489588 0.215948 -0.84479
-13.4299 -14.1487 -24.9372 0.533878 -2.49372 0.0794491 0.517847 0.359431 -0.88349 0.300423
-20.6968 -23.9846 -22.9311 0.376481 -2.29311 0 -3.9 -0.414702 0.0580931 0.908101
-17.9889 -24.1203 -26.3804 0.414476 -2.63804 0 -3.9 0.754289 -0.510211 -0.4132
-14.2214 -19.9431 -29.5146 0.428422 -2.95146 0.316198 -4.5 -0.443195 -0.763642 0.469499
-13.1659 -16.5355 -27.8107 0.492783 -2.78108 0 -4.5 0.151621 -0.380324 0.91234
-12.9596 -13.8493 -27.494 0.483618 -2.7494 0 -3.18966 0.987806 -0.113763 -0.106292
-11.2294 -18.3454 -30.9844 0.434536 -3.09844 0 -4.5 0.461917 -0.167339 -0.870994
-12.0857 -12.8623 -23.6849 0.627334 -2.36849 0 1.8 0.747907 -0.508225 0.427016
-12.4746 -15.5513 -28.0313 0.485789 -2.80313 0 -4.5 0.667328 0.208367 0.715022
-19.358 -17.1332 -25.931 0.414295 -2.5931 0.588273 -3.9 -0.457904 0.461628 0.759752
-12.4885 -18.799 -31.3355 0.464764 -3.13355 0 -4.5 0.193731 -0.264044 -0.944854
-21.7125 -23.1297 -23.6717 0.372393 -2.36718 0.439561 -3.9 -0.79397 0.442434 0.41697
-9.67437 -17.7874 -28.8874 0.478706 -2.88874 0.899028 -4.5 0.851907 0.36151 0.3789
-13.3951 -9.87162 -23.9233 0.609602 -2.39232 0 1.8 -0.188981 0.758027 0.624244
-17.7158 -21.5491 -28.3412 0.408737 -2.83412 0 -3.9 0.659563 -0.513203 -0.549181
-19.4355 -24.9403 -26.9944 0.39671 -2.69944 0 -3.9 0.16778 -0.59724 -0.784317
-12.6597 -13.9896 -31.0506 0.479497 -3.10506 0 -4.5 0.517129 0.719848 -0.463029
-11.4781 -12.4936 -26.0131 0.566054 -2.60131 0 1.8 0.850274 -0.392617 -0.350551
-15.4386 -11.6966 -28.8474 0.449045 -2.88474 -0.168929 -3.23913 -0.229867 0.767181 -0.598828
-18.3442 -24.1242 -24.3434 0.379711 -2.43434 0 -3.9 0.770258 -0.352782 0.53127
-20.6302 -22.1019 -25.3009 0.398208 -2.53009 0 -3.9 -0.882156 0.442273 0.161847
-17.7822 -19.1693 -29.9883 0.43287 -2.99883 -0.8973 -3.9 0.725167 0.234322 -0.647477
-15.5859 -12.4191 -25.4236 0.524033 -2.54236 0 1.8 -0.970785 0.010869 0.239705
-17.3587 -17.0128 -26.1928 0.473097 -2.61928 -0.45717 -4.18844 0.0982515 -0.174885 0.979674
-15.2358 -16.2041 -30.4199 0.466966 -3.04199 0 -4.5 -0.821689 -0.220861 -0.525402
-17.6462 -23.2371 -26.8037 0.410383 -2.68037 0 -3.9 0.795078 -0.438481 -0.419029
-17.2583 -12.8529 -27.5014 0.508515 -2.75014 0 -4.5 -0.812502 0.529822 0.243166
-21.0998 -21.453 -27.3621 0.406552 -2.73621 -0.351781 -3.9 -0.985936 -0.116298 0.120018
-11.8619 -17.6379 -28.1202 0.48417 -2.81202 0 -4.5 0.153627 0.00119021 0.988128
-18.0678 -18.1281 -25.8477 0.447424 -2.58477 0 -3.9 0.194359 0.448814 0.872233
-16.0505 -13.3381 -26.0327 0.509467 -2.60327 0 -4.5 -0.631708 0.290517 0.718711
-15.0629 -14.2288 -24.7045 0.553355 -2.47045 0 1.8 -0.418448 -0.690257 0.590294
-16.8794 -18.4736 -26.8031 0.456933 -2.68031 0 -3.9 0.890649 0.00361894 0.454676
-17.2113 -21.1483 -24.9901 0.407916 -2.49901 0 -3.9 0.712266 0.166734 0.681819
-17.0336 -21.2878 -27.0101 0.421178 -2.70101 0 -3.9 0.902679 -0.31992 -0.287787
-16.712 -18.7145 -28.8298 0.438033 -2.88298 0 -3.9 0.750692 -0.0414076 -0.659353
-12.7825 -10.9431 -23.4493 0.651983 -2.34493 0 1.8 0.357691 0.502915 0.78685
-15.2155 -19.0516 -28.981 0.459854 -2.8981 0 -4.5 -0.836251 -0.544427 -0.0654479
-14.4141 -17.1977 -28.3931 0.469149 -2.83931 0 -4.5 -0.0313054 -0.510674 0.859204
3 78 145 166
3 54 152 66
3 135 152 98
3 1 45 98
3 45 145 144
3 170 80 150
3 150 80 58
3 58 80 27
3 58 27 47
3 47 27 182
3 182 90 47
3 27 144 182
3 78 146 175
3 122 146 103
3 146 156 108
3 146 108 103
3 103 108 151
3 166 145 156
3 3 174 108
3 174 151 108
3 3 66 128
3 128 66 135
3 170 150 157
3 180 157 150
3 180 189 49
3 76 189 190
3 169 190 189
3 48 169 24
3 150 114 169
3 24 169 114
3 22 104 52
3 36 52 104
3 119 140 44
3 43 53 133
3 133 182 175
3 133 122 59
3 122 103 64
3 59 122 60
3 64 60 122
3 103 151 188
3 151 174 85
3 188 14 49
3 49 112 188
3 188 139 64
3 64 139 60
3 136 178 187
3 187 112 76
3 76 112 189
3 187 76 190
3 193 192 158
3 176 48 24
3 24 114 36
3 114 52 36
3 190 176 57
3 57 176 69
3 57 69 118
3 118 73 57
3 118 69 44
3 69 104 44
3 73 118 2
3 118 140 2
3 7 73 106
3 95 106 101
3 73 111 106
3 101 106 88
3 106 111 88
3 61 164 111
3 111 164 79
3 111 79 88
3 88 79 132
3 184 178 164
3 79 164 178
3 178 132 79
3 184 164 43
3 184 43 59
3 164 140 43
3 113 4 100
3 113 100 186
3 4 136 6
3 6 136 193
3 193 74 5
3 20 138 153
3 153 138 123
3 120 158 192
3 105 97 125
3 125 97 38
3 97 179 38
3 192 75 95
3 101 121 95
3 134 95 121
3 121 101 142
3 126 142 181
3 181 143 185
3 186 17 177
3 117 155 100
3 186 100 155
3 100 33 117
3 163 33 159
3 137 160 163
3 160 87 117
3 141 163 63
3 63 163 183
3 183 163 159
3 183 159 5
3 159 193 5
3 183 74 153
3 29 15 82
3 15 28 82
3 131 161 127
3 161 165 127
3 127 165 105
3 127 105 125
3 38 96 77
3 179 96 38
3 96 134 67
3 67 149 96
3 96 149 130
3 96 130 77
3 51 121 142
3 51 142 126
3 173 51 126
3 173 126 16
3 173 16 70
3 70 16 18
3 181 185 62
3 62 185 177
3 68 32 62
3 18 62 32
3 177 55 68
3 34 162 155
3 91 155 162
3 34 129 162
3 129 172 94
3 172 87 147
3 71 13 147
3 147 13 39
3 84 13 71
3 84 71 99
3 46 11 154
3 154 77 171
3 149 173 8
3 130 99 171
3 171 99 9
3 171 9 141
3 99 8 84
3 13 84 37
3 37 84 70
3 13 37 39
3 39 37 42
3 37 56 42
3 42 56 23
3 32 92 56
3 30 56 92
3 92 35 168
3 35 148 168
3 23 30 93
3 116 93 107
3 93 168 191
3 191 83 107
3 162 107 83
3 93 116 50
3 102 50 124
3 94 124 50
3 147 124 172
3 131 19 40
3 131 40 167
3 19 63 40
3 63 183 40
3 167 40 183
3 180 85 157
3 157 85 174
3 157 174 109
3 109 174 128
3 144 145 78
3 135 66 152
3 144 175 182
3 175 144 78
3 122 175 146
3 128 174 3
3 190 169 48
3 52 114 47
3 47 114 150
3 58 47 150
3 43 140 53
3 53 140 119
3 133 53 182
3 133 175 122
3 188 64 103
3 189 112 49
3 184 139 187
3 187 110 136
3 136 110 193
3 193 12 192
3 190 192 110
3 190 110 187
3 110 192 12
3 110 12 193
3 190 48 176
3 190 57 73
3 190 73 7
3 190 7 75
3 75 106 95
3 106 75 7
3 178 184 187
3 185 143 132
3 185 132 113
3 185 113 186
3 33 100 6
3 33 6 159
3 6 100 4
3 193 159 6
3 153 74 158
3 75 192 190
3 95 134 179
3 186 177 185
3 117 34 155
3 160 117 33
3 160 33 163
3 87 160 147
3 137 163 141
3 125 154 127
3 179 134 96
3 84 8 173
3 84 173 70
3 62 18 16
3 62 16 181
3 124 94 172
3 99 160 137
3 160 99 71
3 160 71 147
3 99 137 9
3 9 137 141
3 127 154 11
3 130 171 77
3 30 23 56
3 35 92 68
3 68 92 32
3 191 107 93
3 129 107 162
3 1 152 145
3 145 45 1
3 1 98 152
3 166 156 146
3 166 146 78
3 145 152 156
3 54 156 152
3 3 21 66
3 21 54 66
3 21 3 108
3 21 108 156
3 21 156 54
3 26 98 170
3 135 98 26
3 80 170 98
3 80 98 45
3 80 45 27
3 27 45 144
3 150 169 180
3 180 169 189
3 22 90 119
3 90 182 119
3 119 44 104
3 119 104 22
3 22 52 90
3 47 90 52
3 182 53 119
3 85 14 151
3 85 180 14
3 49 14 180
3 14 188 151
3 109 128 26
3 109 26 170
3 109 170 157
3 128 135 26
3 188 112 139
3 112 187 139
3 10 115 31
3 10 31 69
3 176 10 69
3 10 176 115
3 115 176 24
3 115 24 36
3 115 36 104
3 115 104 31
3 31 104 69
3 118 44 140
3 61 111 2
3 61 2 140
3 73 2 111
3 61 140 164
3 133 59 43
3 59 60 184
3 139 184 60
3 136 4 178
3 178 4 113
3 178 113 132
3 158 74 193
3 20 153 158
3 20 158 120
3 20 120 138
3 0 105 120
3 0 120 192
3 120 165 138
3 120 105 165
3 192 97 0
3 0 97 105
3 192 179 97
3 95 179 192
3 143 181 88
3 142 101 88
3 181 142 88
3 143 88 132
3 186 86 17
3 86 186 91
3 91 186 155
3 74 183 5
3 123 28 15
3 15 29 123
3 28 123 138
3 123 29 153
3 165 161 138
3 125 38 77
3 67 121 51
3 67 51 149
3 134 121 67
3 126 181 16
3 62 177 68
3 86 91 89
3 89 81 86
3 86 81 17
3 17 81 55
3 17 55 177
3 148 81 89
3 34 172 129
3 117 87 34
3 172 34 87
3 46 141 19
3 63 19 141
3 46 19 11
3 11 19 131
3 167 82 65
3 167 72 82
3 167 65 131
3 167 183 72
3 28 138 161
3 65 28 161
3 28 65 82
3 29 82 72
3 29 72 183
3 29 183 153
3 65 161 131
3 131 127 11
3 77 154 125
3 173 149 51
3 149 8 99
3 149 99 130
3 37 70 41
3 41 70 18
3 18 32 41
3 41 32 56
3 41 56 37
3 25 55 81
3 25 81 148
3 25 148 35
3 68 25 35
3 25 68 55
3 168 93 30
3 30 92 168
3 162 83 89
3 89 91 162
3 83 148 89
3 116 107 129
3 116 129 94
3 94 50 116
3 42 102 39
3 147 39 124
3 124 39 102
3 23 102 42
3 171 46 154
3 46 171 141
3 23 93 102
3 50 102 93
3 148 83 191
3 148 191 168
