ply
format ascii 1.0
comment Generated by PyMesh
element vertex 458
property float x
property float y
property float z
property float iface
property float charge
property float hbond
property float hphob
property float nx
property float ny
property float nz
element face 912
property list uchar int vertex_indices
end_header
-0.885 9.534 72.58 0.172906 7.258 0.602785 -1.3 0.125937 0.0647482 -0.989923
1.929 11.9615 74.9675 0.211363 7.49675 0 -1.3 0.609858 0.580061 -0.540001
12.385 16.457 77.3995 0.285714 7.73995 -0.687593 -0.8 0.0649621 0.564483 -0.822885
28.097 15.46 79.417 0.243339 7.9417 -0.803392 -3.5 -0.0528465 0.197312 0.978915
6.765 10.291 80.389 0.196081 8.0389 0 1.8 0.796988 -0.384837 -0.465522
1.85925 9.68825 76.1198 0.196809 7.61198 0 -1.3 0.69268 -0.698253 -0.180658
22.4745 16.741 80.8635 0.239398 8.08635 0 -3.5 0.432589 -0.204478 0.878098
19.5115 17.754 76.809 0.268469 7.6809 -0.490999 0.618848 -0.179264 0.786277 -0.591298
-2.3205 7.4105 77.695 0.177336 7.7695 0 -3.5 -0.315608 -0.568091 -0.760043
32.3855 15.3405 73.7515 0.224593 7.37515 0 3.8 0.76334 0.419686 -0.491096
-0.889 7.515 77.933 0.186699 7.7933 -0.66201 -3.5 0.0550803 -0.677513 -0.733446
4.335 18.322 81.968 0.197059 8.1968 -0.00930884 -3.5 -0.719593 -0.104652 0.686465
9.428 12.9245 82.932 0.237307 8.2932 -0.0748717 -3.5 0.138767 -0.449734 0.882317
25.779 12.9955 79.6415 0.215646 7.96415 -0.825583 -3.5 -0.139621 0.381502 0.913763
10.2935 12.561 81.7555 0.243416 8.17555 -0.37553 -2.28256 0.329975 -0.770515 0.545365
29.8145 17.198 76.2367 0.236213 7.62367 0 3.8 0.517864 0.716232 0.467792
7.34875 13.5507 78.435 0.252259 7.8435 -0.75154 0.816861 0.405783 -0.085353 -0.909976
13.4145 15.7443 77.7895 0.273447 7.77895 -0.462092 -0.702581 0.271338 0.0862211 -0.958614
18.518 16.198 79.819 0.239317 7.9819 0 4.5 -0.0836555 0.369278 0.925546
5.56425 15.2942 81.938 0.23073 8.1938 0 -3.5 -0.678502 0.0918372 0.728835
14.3518 11.2395 76.704 0.225139 7.6704 0 4.5 -0.747672 -0.443631 -0.494144
26.063 15.283 78.822 0.257456 7.8822 0 -3.5 0.00789339 0.389099 0.921162
12.171 15.8426 81.2619 0.247176 8.12619 0 -0.4 -0.436598 0.468037 0.768325
22.728 14.393 79.8815 0.215797 7.98815 -0.464279 -3.5 0.254195 -0.225919 0.940396
-3.742 10.964 75.6505 0.199448 7.56505 0 -1.3 -0.926989 0.229565 -0.296634
24.434 11.522 78.606 0.215594 7.8606 -0 -3.5 -0.957164 -0.285269 0.0495878
-2.47925 9.597 81.4027 0.199731 8.14028 0 -3.5 -0.636401 0.574388 0.514851
3.649 18.4265 80.981 0.182763 8.0981 -0.14853 -3.5 -0.991594 -0.0986227 0.0837579
21.796 13.018 76.244 0.234772 7.6244 0 -0.7 -0.108582 -0.994057 0.00778963
15.066 12.3623 75.3825 0.237324 7.53825 0 4.5 -0.331893 0.277788 -0.901488
7.2855 14.8822 78.328 0.259058 7.8328 0 -3.5 0.0586183 0.190912 -0.979855
1.7725 8.0285 78.443 0.188232 7.8443 -0.393574 -3.38633 0.810585 -0.488821 -0.3225
10.294 11.272 79.9948 0.241481 7.99948 0 -0.8 -0.33099 -0.84056 0.428841
23.354 12.427 76.619 0.247048 7.6619 0 -0.7 -0.245866 -0.96586 0.0816331
19.5005 14.8532 76.247 0.253348 7.6247 0 4.5 -0.154439 0.178923 -0.971666
-1.1715 10.2035 81.339 0.202843 8.1339 0.163967 -1.43895 -0.146104 0.621788 0.769437
17.1162 17.1623 78.5242 0.249273 7.85243 -0.0262438 4.5 -0.243485 0.958328 0.149405
29.921 15.426 78.326 0.261761 7.8326 -0.104378 -3.5 0.776071 0.108825 0.621185
7.002 18.499 79.736 0.270994 7.9736 0 -3.5 0.541287 0.521866 -0.659291
-0.0845 7.061 82.3692 0.179807 8.23693 0 -3.5 0.653474 -0.43286 0.62097
-0.93125 11.4853 80.201 0.209446 8.0201 0.135053 -1.3 -0.560905 0.686109 0.463291
21.0672 15.2878 74.1367 0.260163 7.41367 0 -0.7 -0.8398 0.482077 -0.249677
24.674 11.0297 79.8335 0.1965 7.98335 -0.573358 -3.5 -0.751362 -0.260119 0.606459
5.66262 18.5688 79.2806 0.235737 7.92806 -0.0563588 -3.5 -0.0301935 0.354138 -0.934706
-1.5745 6.4265 79.8395 0.178219 7.98395 0 -3.5 0.11257 -0.986755 -0.116804
28.0158 18.3105 73.1233 0.193124 7.31233 -0.26983 3.8 -0.236177 0.477828 -0.846109
22.0938 20.912 77.97 0.256176 7.797 0 -3.5 0.154772 0.974812 0.160585
-0.1285 13.492 78.973 0.216896 7.8973 0 -1.3 -0.436184 0.809163 0.393699
14.9192 17.3993 81.2682 0.233313 8.12683 0 -0.4 0.419582 0.577068 0.700673
11.0938 16.2703 77.5415 0.277241 7.75415 -0.393465 -0.8 -0.398562 0.579358 -0.71098
21.519 14.8385 79.9183 0.229648 7.99183 -0.892323 -3.5 0.018558 -0.393833 0.918995
7.78025 18.0138 80.337 0.279714 8.0337 -0.0178484 -3.5 0.622896 0.612862 -0.48621
23.925 20.0535 77.4348 0.244266 7.74347 0 -3.5 0.644171 0.737031 0.204521
-1.186 6.675 82.5335 0.177804 8.25335 0 -3.5 0.0150269 -0.867586 0.49706
-1.186 7.7645 83.076 0.189285 8.3076 0 -3.5 -0.0877556 0.00439287 0.996132
6.084 9.45275 80.4887 0.182975 8.04887 0 1.8 0.323445 -0.846916 -0.422038
-2.41225 11.1538 78.6965 0.226157 7.86965 0 -1.3 -0.79406 0.27632 0.541402
-3.8745 10.223 76.6352 0.191481 7.66353 0 -1.3 -0.961472 -0.169145 0.216705
31.9202 16.0105 76.9668 0.244344 7.69667 0 3.8 0.397131 0.662778 0.634833
13.406 14.2338 81.8915 0.222905 8.18915 0.825916 -0.4 0.0350908 -0.52337 0.851383
-2.7245 10.5545 73.1055 0.180146 7.31055 -0.00688761 -1.3 -0.485086 0.538506 -0.688987
27.6575 9.07125 77.2897 0.206444 7.72897 -0.470951 -3.5 0.43296 -0.658603 -0.615458
22.102 13.598 79.608 0.211672 7.9608 -0.498048 -3.5 -0.168312 -0.672146 0.721035
-2.1665 11.2515 73.694 0.203625 7.3694 -0.0119971 -1.3 -0.360568 0.806552 -0.468471
0.4955 7.672 81.636 0.184223 8.1636 0 -3.5 0.90143 -0.208942 0.379167
27.8925 16.3592 78.7562 0.26175 7.87563 -0.0192769 -3.5 -0.235159 0.710971 0.662738
-3.1185 9.00775 74.5045 0.163359 7.45045 -0.426604 -1.3 -0.622458 -0.769818 0.14116
23.361 14.5898 71.6837 0.245491 7.16838 0 -0.7 0.265513 0.13575 -0.954502
12.6385 13.682 81.422 0.213332 8.1422 0.214824 -0.43317 0.312795 -0.580263 0.751967
21.1087 20.96 77.624 0.260111 7.7624 -0.0571273 -3.5 -0.399927 0.915496 -0.043873
13.5737 15.238 82.0583 0.219684 8.20582 0.356327 -0.4 -0.00958472 0.165833 0.986107
-1.4535 11.852 74.3633 0.215209 7.43633 0 -1.3 -0.242244 0.852496 -0.463216
-1.46625 6.7785 78.327 0.178501 7.8327 0 -3.5 0.12321 -0.787618 -0.603719
1.583 9.161 77.3558 0.202732 7.73558 -0.210069 -1.9371 0.717535 -0.596363 -0.359854
13.885 17.27 81.5393 0.228862 8.15392 0 -0.4 -0.182884 0.549037 0.815544
27.6575 8.77625 78.266 0.178818 7.8266 -0.162526 -3.5 0.311932 -0.941093 0.130547
-2.447 8.48025 73.6127 0.151636 7.36128 0 -1.3 -0.49349 -0.808471 -0.320691
16.4375 14.1427 81.876 0.230258 8.1876 -0.223838 -0.4 0.355435 -0.392327 0.848378
29.1045 18.4062 73.1845 0.195734 7.31845 0 3.8 0.450107 0.491304 -0.74567
17.346 17.4365 76.787 0.251804 7.6787 -0.710515 4.5 -0.482746 0.741469 -0.466026
27.5315 18.9123 74.1125 0.202771 7.41125 -0.833769 3.8 -0.385824 0.914456 -0.122107
21.3965 16.6908 81.038 0.224237 8.1038 0 -3.5 -0.0937746 -0.173787 0.980308
4.80275 11.545 78.1288 0.205176 7.81287 -0.0441954 1.8 0.225818 -0.40201 -0.887353
4.598 19.4595 79.519 0.18134 7.9519 -0.0751303 -3.5 -0.459513 0.475127 -0.750401
25.1558 16.7302 73.4185 0.217745 7.34185 -0.883418 1.70958 -0.00797041 0.41577 -0.909435
32.9552 15.8865 75.964 0.244902 7.5964 0 3.8 0.8023 0.487084 0.345057
29.0785 15.7155 79.2122 0.26162 7.92123 -0.301754 -3.5 0.391484 0.33452 0.857226
16.1385 15.2963 76.8303 0.261507 7.68302 0.0135167 4.5 -0.54973 0.242979 -0.799223
3.1825 13.1578 82.0837 0.191591 8.20837 0 1.8 -0.22671 0.668975 0.707866
2.108 12.3125 76.025 0.216662 7.6025 0 -1.3 0.628339 0.654519 -0.420469
19.795 13.4935 79.357 0.224086 7.9357 0.0468365 4.06748 0.205836 -0.463136 0.862054
5.83225 12.0775 77.8968 0.205673 7.78968 -0.616026 1.8 0.12834 -0.357738 -0.924961
-3.6615 11.248 76.84 0.218328 7.684 0 -1.3 -0.868895 0.381971 0.314832
-1.24775 12.7835 78.338 0.219299 7.8338 0 -1.3 -0.461292 0.876837 0.135523
32.1325 16.494 75.968 0.235328 7.5968 0 3.8 0.351496 0.925057 0.143944
6.85825 12.749 77.9885 0.220553 7.79885 -0.367351 1.8 0.489685 -0.153969 -0.858197
13.8988 14.4815 77.9043 0.270748 7.79042 0.434945 -0.0487784 0.129443 0.210852 -0.96891
16.3515 16.9622 77.2373 0.264915 7.72372 -0.0771776 4.5 -0.406045 0.626664 -0.665147
5.7625 19.5063 79.7168 0.211272 7.97167 0 -3.5 0.265836 0.62689 -0.732353
-0.2665 7.006 78.5908 0.18129 7.85908 -0.846998 -3.5 0.172828 -0.91613 -0.361713
0.0825 12.4733 79.9873 0.213256 7.99872 0 -1.3 -0.532037 0.664869 0.524296
17.2917 11.5142 79.697 0.218752 7.9697 0 4.5 0.323906 -0.608389 0.724533
1.0435 7.191 78.296 0.178902 7.8296 -0.197748 -3.5 0.516457 -0.853503 -0.0693173
28.2735 11.8005 75.8125 0.267003 7.58125 0 -3.5 0.122266 -0.625741 -0.770389
25.134 17.8213 77.1513 0.254237 7.71513 0.61925 -3.5 0.755762 0.570966 0.320659
6.6575 19.559 80.3798 0.227476 8.03798 0 -3.5 0.464999 0.736261 -0.491626
25.4505 10.035 78.2327 0.202463 7.82328 -0.0837949 -3.5 -0.70886 -0.686503 -0.161959
-1.0325 6.2985 80.855 0.18204 8.0855 0 -3.5 0.180779 -0.983446 0.0123758
-2.363 7.1695 82.2868 0.186039 8.22867 0 -3.5 -0.659935 -0.482642 0.575797
23.0702 20.32 78.347 0.233423 7.8347 0 -3.5 0.403563 0.806175 0.432689
-3.05025 7.2965 80.6198 0.188072 8.06197 0 -3.5 -0.915565 -0.30655 0.260321
14.35 12.683 76.217 0.250585 7.6217 0 4.5 -0.688939 0.201647 -0.696206
-2.953 8.5345 80.9617 0.191293 8.09618 0 -3.5 -0.944342 0.155478 0.289905
6.66775 18.3153 83.1158 0.244906 8.31157 -0.0196928 -3.5 0.00501373 -0.0163046 0.999855
1.56537 9.77388 80.9564 0.178763 8.09564 0 -1.3 0.334695 -0.672974 0.65961
12.4665 12.5074 80.4789 0.218963 8.04789 -0.198909 -0.8 0.483258 -0.576656 0.658733
3.51675 11.5387 82.588 0.189448 8.2588 -0.100919 1.40191 -0.296427 0.14671 0.94372
19.6873 16.1666 80.0232 0.238874 8.00233 0 -3.5 -0.287082 0.165537 0.943494
15.621 13.4835 81.2435 0.228562 8.12435 0 -0.4 -0.0352591 -0.836127 0.547401
20.967 14.147 74.5069 0.262484 7.45069 0 -0.7 -0.953592 -0.143772 -0.264558
17.5284 15.9011 80.1732 0.233249 8.01733 0 4.5 0.374315 0.527116 0.762913
29.389 11.948 77.715 0.244203 7.7715 0 -3.5 0.906553 -0.40599 0.115475
13.8975 17.7782 79.133 0.245978 7.9133 0 -0.4 -0.126637 0.944048 -0.304526
30.7346 16.7523 74.797 0.229869 7.4797 0 3.8 0.489257 0.872131 0.00380313
5.1685 19.64 81.966 0.19227 8.1966 -0.384427 -3.5 -0.27003 0.790273 0.550047
3.696 10.6955 78.15 0.195598 7.815 0.415116 1.61186 0.51969 -0.490456 -0.699554
27.8019 16.8612 76.8735 0.26028 7.68735 -0.0164291 0.246282 -0.0578203 0.809385 0.584425
19.8298 11.8822 78.0762 0.204763 7.80762 0 4.5 0.527248 -0.832357 0.170854
13.3494 17.735 80.2182 0.235991 8.02182 0 -0.4 -0.440601 0.869718 0.222401
6.89587 10.1844 81.4654 0.19646 8.14654 0 1.8 0.790869 -0.604742 0.0938842
24.4346 12.5999 75.3802 0.246626 7.53802 0.168474 -3.5 0.0435458 -0.93737 -0.345604
-2.97213 10.986 74.4989 0.185086 7.44989 -0.0102109 -1.3 -0.79548 0.489197 -0.357627
14.935 11.323 75.7465 0.230633 7.57465 0 4.5 -0.581993 -0.415273 -0.699166
15.7565 17.1822 79.2845 0.235593 7.92845 0 4.13494 0.387731 0.917262 -0.0910772
26.1099 12.7767 75.3731 0.259342 7.53731 0.130754 -2.71038 0.129692 -0.745602 -0.653649
15.667 17.2202 80.4977 0.215347 8.04978 0 -0.4 0.53333 0.744746 0.401139
4.3265 11.0772 83.116 0.185474 8.3116 0 1.8 -0.302325 0.0723486 0.950455
9.75725 16.3633 79.7982 0.299371 7.97983 0 -2.89432 0.247358 0.965072 -0.0863134
24.1717 19.208 78.1077 0.249403 7.81077 0 -3.5 0.821502 0.484717 0.300306
-2.89725 10.5702 77.8108 0.216006 7.78108 0 -1.3 -0.865291 0.0909666 0.492946
30.869 12.8532 72.011 0.244362 7.2011 0 3.8 -0.0567713 -0.426879 -0.902525
15.35 15.9345 77.1775 0.280453 7.71775 0.285488 4.5 -0.52383 0.169608 -0.834766
21.6505 12.781 74.2513 0.252858 7.42513 0 -0.7 -0.777657 -0.627046 -0.0454189
31.4861 13.8407 71.9681 0.238655 7.19681 0 3.8 0.109673 0.154539 -0.981881
6.067 17.735 78.6705 0.24901 7.86705 0 -3.5 -0.040691 0.345535 -0.937523
29.4784 12.3011 76.4538 0.262594 7.64537 0 0.733388 0.636367 -0.762484 -0.116857
24.832 10.4635 78.9447 0.201973 7.89447 -0.644802 -3.5 -0.690429 -0.709137 0.142945
-0.42675 11.2673 81.3303 0.200604 8.13303 0.930745 -1.3 -0.509005 0.410571 0.756535
28.9225 16.6085 78.3885 0.268811 7.83885 -0.383946 -3.5 0.219011 0.878128 0.425353
-1.8415 9.19325 82.2517 0.195482 8.22517 0 -3.5 -0.251812 0.559464 0.789677
-2.86987 11.7564 77.5693 0.231801 7.75693 0 -1.3 -0.822288 0.391612 0.412895
4.71863 9.97688 80.1449 0.18273 8.01449 0 1.8 -0.0164418 -0.911585 -0.410782
15.7429 15.3635 82.0414 0.238937 8.20414 -0.401973 -0.4 0.235412 0.26347 0.935502
24.3554 17.6229 79.3575 0.251599 7.93575 0 -3.5 0.782214 -0.0682886 0.619256
28.5051 10.7315 78.5064 0.191808 7.85064 -0.144268 -3.5 0.871478 -0.427489 0.240373
21.5203 17.9667 76.2442 0.264851 7.62442 0 -3.5 -0.550297 0.176231 -0.816159
19.9655 14.9045 80.3375 0.229534 8.03375 0.376307 -3.5 0.0576185 -0.25642 0.964847
3.76925 11.7299 77.8845 0.212769 7.78845 0.561877 1.8 0.519586 0.076562 -0.850981
22.4403 18.2445 75.3897 0.237189 7.53897 0 -3.5 -0.607713 0.110239 -0.786468
5.405 12.3807 82.8831 0.195926 8.28831 0.0163147 1.02566 -0.204609 0.276597 0.938951
10.607 16.3249 78.7349 0.285609 7.87349 -0.0381011 -0.8 -0.301759 0.932946 -0.196349
14.0939 10.8054 78.0074 0.218386 7.80074 0 4.5 -0.532303 -0.84282 0.0794212
-1.7665 10.7622 80.2775 0.2115 8.02775 0 -2.41442 -0.601557 0.6845 0.411811
7.69287 12.1804 80.8419 0.233444 8.08419 0 -3.5 0.449332 -0.892238 -0.044862
21.1758 13.3123 75.1096 0.266058 7.51096 0 -0.7 -0.489771 -0.812388 -0.316465
11.9739 15.5095 77.104 0.298513 7.7104 -0.166373 -0.8 0.0847706 0.0838613 -0.992865
24.917 18.9967 76.491 0.247359 7.6491 0 -3.5 0.874325 0.442741 0.198834
21.0431 13.5056 79.1284 0.227159 7.91284 0.029321 -3.5 0.10814 -0.721405 0.684018
8.01 17.5783 82.1793 0.315711 8.21793 -0.109166 -3.5 0.664376 0.191364 0.722485
29.0925 16.8784 77.1384 0.268064 7.71384 0 3.8 0.285995 0.826542 0.484805
16.3857 14.6032 76.0555 0.262313 7.60555 0 4.5 -0.457969 0.36748 -0.809459
16.6855 13.0192 75.7958 0.236537 7.57958 0 4.5 0.0649821 0.164792 -0.984185
22.2292 15.0339 72.2379 0.242573 7.22379 0 -0.7 -0.456787 0.556219 -0.694237
11.4556 12.1564 80.7973 0.220261 8.07973 0 -0.8 0.191075 -0.710645 0.677107
32.9229 13.9956 73.3615 0.258081 7.33615 0 3.8 0.956596 0.106155 -0.271396
-1.33356 8.44844 74.2592 0.163658 7.42592 0 -1.3 -0.0162762 -0.996555 0.0813215
20.5315 14.9563 76.0299 0.262506 7.60299 0 2.19278 -0.456026 0.157935 -0.875841
0.85 8.85575 76.6687 0.187643 7.66687 -0.0334288 -2.49364 0.462947 -0.790712 -0.400567
25.0842 14.9455 78.8702 0.242923 7.88702 0 -1.96299 -0.000133033 0.0914327 0.995811
22.1696 19.8026 79.1444 0.244023 7.91444 0 -3.5 -0.0102091 0.773904 0.633221
29.7551 12.9481 77.2361 0.26562 7.72361 0 0.0220137 0.73646 -0.46178 0.494353
15.7025 13.29 75.758 0.244342 7.5758 0 4.5 -0.350615 0.464 -0.813494
10.2731 15.182 81.3311 0.258 8.13311 0 -1.81896 0.349043 0.612832 0.708947
5.70825 11.4012 78.6298 0.199473 7.86298 -0.635115 1.8 0.41893 -0.709399 -0.56679
26.6747 18.3325 74.1539 0.209213 7.41539 -0.797335 3.8 -0.49324 0.74398 -0.450786
17.1355 16.2096 76.5316 0.251456 7.65316 -0.53832 4.5 -0.372514 0.270637 -0.887687
17.0265 13.9078 80.9682 0.242301 8.09682 -0.375564 2.20756 0.491236 -0.570334 0.658336
5.07375 10.0305 83.1018 0.190584 8.31017 0 1.8 0.00861251 -0.56678 0.823824
1.9995 11.2165 82.6625 0.181859 8.26625 -0.0730896 -1.3 -0.266704 -0.329665 0.905644
10.2478 11.8246 78.0189 0.235953 7.80189 0 -0.8 -0.453061 -0.70953 -0.539724
-3.44825 9.7765 73.8712 0.164877 7.38713 -0.900027 -1.3 -0.934611 -0.0938438 -0.343068
11.54 12.1021 77.3369 0.237564 7.73369 0 -0.8 -0.104304 -0.501275 -0.858979
18.1075 11.1665 77.4007 0.205752 7.74008 0 4.5 0.434708 -0.878762 0.196993
4.30425 14.0156 81.7073 0.203783 8.17072 0 1.09621 -0.573024 0.6193 0.536759
-1.86563 8.46313 77.1914 0.192547 7.71914 0 -2.11983 -0.210527 -0.659901 -0.721255
-2.6655 8.38275 82.076 0.194472 8.2076 0 -3.5 -0.796252 0.158613 0.583802
16.4328 10.07 76.5863 0.20256 7.65863 0 4.5 0.141674 -0.945869 -0.291993
16.313 12.05 79.919 0.231603 7.9919 0 4.5 -0.0951029 -0.451666 0.887104
20.6766 17.7329 80.6056 0.226703 8.06056 0 -3.5 -0.415187 0.292656 0.861378
5.0365 13.603 82.3375 0.215338 8.23375 0.140402 -2.89889 -0.35922 0.358209 0.86177
11.8266 12.9731 81.4833 0.216204 8.14832 0 -0.8 0.333308 -0.519351 0.78688
8.5455 17.8265 81.1885 0.302292 8.11885 -0.363888 -3.5 0.867609 0.497163 -0.00909186
2.1345 9.509 80.1675 0.181142 8.01675 0 -1.3 0.434424 -0.742744 0.509517
21.725 13.0514 72.9784 0.254315 7.29784 0 -0.7 -0.656755 -0.590346 -0.469217
10.434 13.3641 82.3354 0.249958 8.23354 -0.3275 -2.19588 0.492916 -0.231587 0.83869
9.94862 12.0828 80.7318 0.223233 8.07318 -0.0685663 -2.0532 -0.0812632 -0.887028 0.454508
2.5385 12.7522 77.1154 0.220999 7.71154 0 -1.3 0.548798 0.686983 -0.476314
-2.95587 9.11613 77.5928 0.203993 7.75927 0 -2.46628 -0.943764 -0.318473 -0.0887942
28.8102 19.2253 74.086 0.197179 7.4086 -0.191605 3.8 0.241053 0.954118 -0.177631
23.4722 13.3438 72.2247 0.261111 7.22248 0 -0.7 0.357549 -0.593381 -0.721151
23.207 16.7127 80.0095 0.233187 8.00095 0 -3.5 0.685189 -0.374082 0.624962
32.9881 13.4539 76.3865 0.247661 7.63865 0 3.8 0.729816 -0.511542 0.453534
31.8363 16.382 74.3317 0.234638 7.43318 0 3.8 0.46464 0.816276 -0.343224
31.784 13.3144 76.7066 0.276119 7.67066 0 3.8 0.145151 -0.711926 0.68709
4.251 17.5069 81.3471 0.211097 8.13471 -0.0598725 -3.5 -0.8715 -0.364455 0.328115
8.5355 17.3289 80.0314 0.29519 8.00314 0 -3.5 0.574716 0.641135 -0.508574
26.2645 13.8194 74.373 0.258748 7.4373 0.832134 3.24022 0.262421 -0.555458 -0.789051
2.82425 11.4441 76.7282 0.202159 7.67282 0 -1.3 0.873478 0.0605359 -0.483085
18.172 15.677 76.2135 0.244248 7.62135 0 4.5 -0.0786736 0.0510391 -0.995593
31.0401 15.8096 72.9398 0.230867 7.29397 0 3.8 0.314109 0.539724 -0.781047
5.185 18.5018 82.5575 0.20076 8.25575 0 -3.5 -0.477039 0.137114 0.868121
31.3761 15.3784 77.5579 0.254869 7.75579 0 3.8 0.28377 0.087221 0.954917
5.65562 11.0345 83.3466 0.189448 8.33466 0 1.8 0.127562 -0.047208 0.990707
20.0946 18.8587 78.1796 0.253569 7.81796 -0.00953649 -3.5 -0.845068 0.518378 0.130941
9.12725 12.247 82.075 0.233104 8.2075 -0.0222088 -3.5 0.0321952 -0.908052 0.417619
27.1623 14.9137 79.2585 0.241515 7.92585 -0.397165 -3.5 -0.208585 0.355377 0.911153
-3.3545 8.00275 78.2663 0.191053 7.82662 0 -3.5 -0.831177 -0.226587 -0.507743
30.2974 16.1326 77.3483 0.256833 7.73483 -0.0649332 3.19832 0.461599 0.628079 0.626453
29.0553 11.6226 78.6977 0.210068 7.86977 0 -3.5 0.819076 -0.332492 0.467508
1.551 12.8115 81.9977 0.196606 8.19977 -0.0156065 -1.3 -0.344347 0.818824 0.459295
32.956 15.9926 74.81 0.229423 7.481 0 3.8 0.765354 0.588413 -0.260777
24.931 17.5835 74.4495 0.23934 7.44495 -0.597547 1.5608 -0.106488 0.772792 -0.625662
23.7817 12.809 77.6982 0.233652 7.76982 -0.17699 -1.20133 -0.424601 -0.895774 0.131538
24.5036 13.9722 72.8931 0.253335 7.28931 0 -0.7 0.595972 -0.322061 -0.735591
14.554 15.6066 77.8185 0.274137 7.78185 0 4.5 -0.249394 0.0897207 -0.964237
8.88838 13.7952 82.959 0.258312 8.2959 -0.335346 -3.5 0.0332903 -0.0807833 0.996176
0.0795 6.92475 80.9202 0.175964 8.09202 0 -3.5 0.652336 -0.750269 0.107486
18.4161 17.3401 76.2086 0.256346 7.62086 -0.180896 4.5 -0.128744 0.491574 -0.861267
4.99425 20.1507 80.4822 0.179816 8.04823 -0.467051 -3.5 -0.0561047 0.982545 -0.177361
5.696 10.4655 79.6663 0.180735 7.96663 0 1.8 0.381213 -0.624952 -0.681258
24.2304 15.0345 72.6501 0.250808 7.26501 -0.293544 -0.7 0.569436 0.235799 -0.787491
26.8154 18.3306 75.2174 0.227949 7.52174 -0.335248 3.8 -0.228543 0.911691 0.341449
19.3029 11.4774 76.6448 0.207218 7.66447 0 4.5 0.524026 -0.806734 -0.273089
4.0035 10.0315 82.8365 0.186938 8.28365 0 1.8 -0.481531 -0.575404 0.661088
22.6044 12.6295 75.3037 0.23951 7.53038 0 -0.7 -0.242845 -0.962425 0.121511
30.8577 13.9148 77.1428 0.256281 7.71427 0 3.8 0.265118 -0.476054 0.838502
25.887 16.5777 77.9398 0.261761 7.79397 -0.238701 -0.7 0.532645 0.69146 0.48803
22.6793 13.0972 77.914 0.229583 7.7914 -0.185414 -2.00655 -0.193379 -0.959995 0.202518
23.0737 12.5729 72.9586 0.25766 7.29586 0 -0.7 0.0594364 -0.813572 -0.578419
6.46625 10.0915 82.5611 0.193934 8.25611 0 1.8 0.639359 -0.550745 0.536563
15.106 14.4914 77.6971 0.268256 7.76971 0 4.5 -0.492508 0.23832 -0.837042
22.0198 13.9284 72.14 0.246703 7.214 0 -0.7 -0.454094 -0.282887 -0.844851
21.0212 20.3277 78.6318 0.252326 7.86317 -0.536402 -3.5 -0.421935 0.700533 0.575521
22.4495 12.158 73.8923 0.26189 7.38923 0 -0.7 -0.171814 -0.982666 -0.0696293
3.089 10.5173 82.2185 0.174038 8.22185 0 1.8 -0.239336 -0.59343 0.768478
20.5273 18.8528 76.7999 0.251832 7.67999 0 -3.5 -0.656907 0.327855 -0.678958
22.817 20.558 77.032 0.250711 7.7032 0 -3.5 0.291087 0.943003 -0.161289
-2.343 9.66862 72.6752 0.156185 7.26753 0 -1.3 -0.372094 -0.0567335 -0.92646
28.4928 14.2292 72.9115 0.229188 7.29115 0 3.8 -0.441012 -0.326654 -0.835946
4.58 16.0268 81.364 0.229721 8.1364 0 -3.5 -0.877654 -0.168771 0.448598
13.5695 17.0606 78.0574 0.258762 7.80574 0 -0.4 -0.0246863 0.577588 -0.815955
29.2103 13.463 73.1677 0.239333 7.31677 0 3.8 -0.592047 -0.580108 -0.559424
22.4827 15.6945 80.243 0.240189 8.0243 -0.222404 -3.5 0.383321 -0.346981 0.855961
22.0933 17.7341 80.7807 0.227511 8.07808 0 -3.5 0.029428 0.3172 0.947902
4.33787 16.0269 80.2646 0.226222 8.02646 0 -3.5 -0.971527 -0.114829 -0.207243
14.5191 13.5065 80.3213 0.232489 8.03213 0 -0.4 -0.111566 -0.776308 0.620403
32.4636 12.8042 75.1785 0.247709 7.51785 0 3.8 0.65594 -0.72412 0.213057
26.6528 12.0715 75.9575 0.26624 7.59575 0.00964247 -3.5 -0.145122 -0.531372 -0.834616
20.6841 15.9119 80.4045 0.230072 8.04045 0 -3.5 -0.185334 -0.231879 0.954926
32.3254 13.0892 72.3887 0.256151 7.23887 0 3.8 0.623358 -0.209017 -0.753483
24.2708 19.8791 76.0199 0.249639 7.60199 0 -3.5 0.591643 0.774922 -0.222384
23.708 16.1396 73.0124 0.252431 7.30124 -0.845524 -0.7 0.0168032 0.581909 -0.81308
19.197 17.9585 78.4526 0.27125 7.84526 -0.1315 2.47157 -0.51068 0.851761 0.117083
17.256 14.8778 81.1212 0.235416 8.11213 -0.0947583 2.82805 0.623253 0.177336 0.761648
0.06575 11.7618 73.8408 0.211054 7.38408 0 -1.3 0.0873067 0.69859 -0.710176
-2.30725 12.3135 78.2237 0.228073 7.82237 0 -1.3 -0.605122 0.755469 0.251186
20.7835 19.1375 79.4971 0.241355 7.94971 0 -3.5 -0.485176 0.621891 0.6147
0.5925 11.8825 81.6275 0.184131 8.16275 -0.833163 -1.3 -0.568996 0.406898 0.714617
-2.29 6.57275 80.6431 0.184884 8.06431 0 -3.5 -0.398155 -0.895516 0.198809
6.4515 19.4492 82.814 0.231392 8.2814 -0.658411 -3.5 0.0446634 0.597323 0.800756
19.4552 12.1875 79.0225 0.214982 7.90225 0 4.5 0.374888 -0.648866 0.662142
-2.77475 9.91912 80.4646 0.208057 8.04646 0 -3.5 -0.831233 0.511133 0.21862
29.0522 17.9559 75.8682 0.238024 7.58682 0 3.8 0.321251 0.767846 0.554265
23.483 17.7931 80.3866 0.239238 8.03866 0 -3.5 0.54919 -0.00300449 0.835692
24.043 15.1295 78.9015 0.224644 7.89015 0 -0.755955 0.340824 -0.0317095 0.939592
2.46438 12.2689 82.5499 0.185791 8.25499 -0.742982 -1.05168 -0.138706 0.182297 0.973411
-3.12112 11.8809 76.1589 0.215831 7.61589 0 -1.3 -0.60166 0.78413 -0.152133
12.4808 14.9563 81.9695 0.239089 8.19695 0.320891 -0.4 -0.197801 0.132572 0.971236
16.6725 16.1173 80.9645 0.239274 8.09645 0 -0.4 0.508554 0.580168 0.636221
17.6146 12.593 79.8351 0.235768 7.98351 0 4.5 0.334893 -0.342322 0.877874
6.57475 15.3713 82.7818 0.242862 8.27818 0 -3.5 -0.248512 0.0108501 0.968568
26.3745 9.07963 77.6059 0.201168 7.76059 -0.227184 -3.5 -0.541614 -0.784471 -0.302091
28.1353 9.80425 78.8089 0.179314 7.88089 0 -3.5 0.785144 -0.447887 0.427721
15.6453 10.1721 78.1175 0.220565 7.81175 0 4.5 -0.0534506 -0.882346 0.467556
29.717 12.639 72.7834 0.240782 7.27834 0 3.8 -0.677691 -0.479041 -0.557902
10.7148 12.8405 77.1178 0.262249 7.71177 0 -0.8 -0.344015 -0.105813 -0.932983
25.2165 12.0411 80.0191 0.205184 8.00191 -0.258356 -3.5 -0.47798 0.160481 0.863586
6.889 11.5702 80.0397 0.208584 8.00397 0 1.8 0.656071 -0.656763 -0.371796
25.8285 10.9265 76.8135 0.23827 7.68135 0 -3.5 -0.54582 -0.532608 -0.646846
25.4277 13.6045 73.6008 0.258882 7.36007 0 -0.7 0.477056 -0.622881 -0.620031
6.07538 13.6426 77.9796 0.220571 7.79796 -0.326062 1.8 -0.0680103 0.262809 -0.962448
9.639 15.199 77.9942 0.286109 7.79943 0.683525 -0.8 -0.453774 0.393982 -0.799292
25.1812 16.424 78.719 0.25239 7.8719 -0.286889 -0.7 0.464163 0.329213 0.822296
22.7626 19.16 80.2266 0.243051 8.02266 0 -3.5 0.08109 0.587065 0.805468
-1.34337 8.6025 72.9086 0.159396 7.29086 0.726351 -1.3 0.149528 -0.790573 -0.593832
4.13538 19.6046 81.3597 0.170075 8.13597 -0.514866 -3.5 -0.799042 0.546269 0.25124
27.5799 14.2089 73.9824 0.250313 7.39824 0.0465376 3.8 -0.407491 -0.56547 -0.717074
18.8468 13.62 79.6992 0.235822 7.96992 0.0199696 3.98579 0.274417 -0.416185 0.866882
10.8631 10.9304 79.1643 0.24048 7.91643 0 -0.8 -0.202232 -0.978395 0.042968
26.7036 9.05513 78.9206 0.178591 7.89206 -0.688373 -3.5 -0.15111 -0.792958 0.59024
14.472 17.9304 80.4331 0.226586 8.04331 0 -0.4 0.0893911 0.981551 0.169017
8.05812 12.322 82.0305 0.216629 8.20305 -0.13835 -3.5 0.362874 -0.721587 0.589605
7.9825 18.7585 82.1608 0.263152 8.21607 -0.360016 -3.5 0.709412 0.277414 0.647901
18.395 17.1252 79.302 0.241189 7.9302 0 4.5 -0.214436 0.758481 0.615406
0.537875 7.72862 77.4901 0.184861 7.74901 -0.214595 -3.5 0.234645 -0.696884 -0.677713
28.1117 18.6245 75.5559 0.228155 7.55559 -0.00118456 3.8 0.0456814 0.833061 0.551291
1.14013 13.1077 80.1062 0.216492 8.01062 0 -1.3 -0.239897 0.897184 0.370823
28.5632 14.3581 79.1605 0.243509 7.91605 -0.651446 -3.5 0.414055 -0.0843614 0.906334
17.8589 10.9172 76.1407 0.211779 7.61408 0 4.5 0.416578 -0.706494 -0.572127
13.8004 13.232 77.0738 0.270235 7.70738 0.683696 -0.8 -0.260039 0.461899 -0.847956
20.4117 14.0579 75.4387 0.246064 7.54387 0 2.11356 -0.676772 0.162525 -0.718028
30.7461 16.6535 76.0065 0.245995 7.60065 0 3.8 0.398161 0.843997 0.359356
11.3613 15.1199 81.2174 0.237441 8.12174 0 -0.605358 -0.212348 0.592161 0.777337
-1.0935 12.188 75.5472 0.224629 7.55473 0 -1.3 -0.309694 0.923056 -0.228162
4.52231 14.6774 80.6669 0.210674 8.06669 0 -2.92506 -0.93768 0.317125 -0.142085
17.2565 10.4426 77.4179 0.206052 7.74179 0 4.5 0.465351 -0.852481 0.23817
18.5345 14.9427 80.3349 0.233479 8.03349 0 2.88391 0.240978 0.0951098 0.965859
16.2017 10.8767 78.8274 0.227385 7.88274 0 4.5 0.0554831 -0.783101 0.619415
22.1092 17.0273 75.3077 0.250378 7.53078 0.838167 -0.7 -0.564317 0.415613 -0.71331
31.0199 12.9097 76.0617 0.261529 7.60617 0 3.8 0.230133 -0.853229 0.468017
13.5608 11.9242 77.1619 0.241106 7.71619 -0.0927161 -0.8 -0.471702 -0.365631 -0.802378
5.23088 16.8579 82.1294 0.260987 8.21294 0 -3.5 -0.544946 -0.206392 0.812672
5.52275 14.9362 79.1908 0.229841 7.91908 0 -2.57673 -0.588437 0.185301 -0.787023
21.7568 18.9023 80.0396 0.234269 8.00396 0 -3.5 -0.230616 0.618836 0.750905
24.5853 17.9966 78.1666 0.253708 7.81666 0 -3.5 0.849022 0.397636 0.347918
-0.323375 8.70856 76.5172 0.182641 7.65172 0 -1.3 0.106394 -0.949882 -0.293946
23.5849 16.0613 79.2301 0.238915 7.92301 0 -3.5 0.467981 -0.210357 0.858337
7.72069 16.4338 79.1836 0.286019 7.91836 0 -3.5 0.307477 0.365994 -0.878354
2.16156 9.01825 79.2033 0.193574 7.92033 0 -1.3 0.693291 -0.711044 0.117322
21.3395 15.9849 75.14 0.241973 7.514 0.286784 -0.7 -0.775103 0.398649 -0.490198
9.26437 16.1182 81.3636 0.264461 8.13636 0 -3.5 0.668083 0.586326 0.458135
20.7951 12.9094 76.7678 0.233996 7.67677 0 2.73802 0.385983 -0.894621 -0.225101
3.04719 12.9392 78.3422 0.212776 7.83423 0 -1.23115 0.234766 0.900505 -0.366027
0.953875 10.7094 81.8682 0.187463 8.18682 -0.634671 -1.3 -0.175296 -0.378108 0.909013
0.880125 12.8287 76.3966 0.227949 7.63966 0 -1.3 0.0524096 0.91953 -0.389509
6.04425 13.8763 82.8815 0.217529 8.28815 0.851013 -3.5 -0.292804 0.194406 0.936201
27.8984 12.6031 79.4835 0.197785 7.94835 0 -3.5 0.450934 0.0427666 0.891532
28.7537 16.7049 73.0939 0.204603 7.30939 0 3.8 -0.0316321 0.0896858 -0.995468
16.0674 13.084 80.2947 0.229738 8.02948 0 0.911696 0.0517961 -0.623989 0.779715
7.23656 17.5341 79.2842 0.272494 7.92842 0 -3.5 0.507983 0.395053 -0.765432
-0.263 8.76562 74.3551 0.173102 7.43551 0 -1.3 0.407458 -0.896197 -0.175526
26.0403 11.0546 80.294 0.188744 8.0294 -0.00739556 -3.5 -0.0522752 -0.175851 0.983028
14.5765 12.0697 79.3035 0.244647 7.93035 -0.439007 1.67527 -0.0622169 -0.65788 0.750549
8.594 15.8551 79.0389 0.315317 7.90389 0.036685 -1.87221 -0.0894702 0.622969 -0.777113
22.5684 16.2402 74.1149 0.245824 7.41149 -0.442467 -0.7 -0.526984 0.679855 -0.509985
16.7638 16.8659 79.6814 0.228802 7.96814 0 3.42299 0.270182 0.909948 0.314635
1.14269 11.0028 73.7546 0.208266 7.37546 0 -1.3 0.530116 0.332225 -0.78013
8.26775 14.2226 78.4798 0.277551 7.84797 0 -2.98912 -0.0633577 0.026841 -0.99763
12.6296 13.9581 77.274 0.269051 7.7274 0.327653 -0.8 0.0228655 0.0922518 -0.995473
21.632 19.2085 76.074 0.255263 7.6074 -0.0181552 -3.5 -0.593948 0.100923 -0.798148
3.36588 13.4531 81.0069 0.195256 8.10069 0 1.8 -0.453242 0.890325 0.0435209
-3.41213 9.80188 75.5478 0.186034 7.55478 -0.308754 -1.3 -0.896352 -0.430367 -0.106477
-0.193438 8.85163 82.3146 0.194519 8.23146 0 -3.5 0.492552 0.380217 0.782833
15.2151 13.6158 76.9716 0.259095 7.69716 0 4.5 -0.512552 0.624345 -0.589478
7.22788 19.8211 81.6335 0.24341 8.16335 -0.301128 -3.5 0.54737 0.831894 -0.0913169
10.9536 14.3645 81.7554 0.230979 8.17554 0 -0.8 0.248318 0.385864 0.888508
30.1655 14.5702 72.5348 0.235135 7.25348 0 3.8 -0.242295 0.102566 -0.964766
32.8483 14.2729 74.369 0.245404 7.4369 0 3.8 0.989027 0.0540302 -0.137502
29.206 13.3345 78.6582 0.235937 7.86583 0 -3.5 0.780466 -0.10553 0.616228
15.3599 17.0781 77.9729 0.254155 7.79729 0.247004 2.16889 -0.0460788 0.888681 -0.456204
30.1624 14.5801 77.7425 0.265287 7.77425 0 -2.59969 0.607919 -0.168002 0.776022
-2.67756 9.998 79.0054 0.215793 7.90054 0 -3.5 -0.880669 0.426563 0.206073
0.418 12.4975 75.2145 0.230548 7.52145 0 -1.3 0.0865389 0.909499 -0.406598
5.0305 16.7658 79.1038 0.22819 7.91038 0 -3.5 -0.641024 -0.101144 -0.760828
28.9975 15.486 72.6417 0.215988 7.26417 0 3.8 -0.132285 0.205842 -0.969603
24.7906 13.9378 79.015 0.237197 7.9015 0 -3.5 -0.122716 0.242953 0.962245
29.6518 12.6814 74.1447 0.261634 7.41447 0 3.8 -0.522386 -0.84846 -0.0850186
0.522187 9.15375 81.3912 0.192142 8.13912 0 -3.10185 0.541102 -0.101851 0.834766
24.0795 12.804 74.1168 0.252782 7.41168 0 -0.7 0.393116 -0.880844 -0.263768
-1.34225 11.8964 79.2661 0.222708 7.92661 0 -1.3 -0.597927 0.556856 0.576538
6.36375 16.1124 78.5759 0.270023 7.85759 0 -3.5 -0.0219893 0.0837361 -0.996245
8.9955 12.8425 78.63 0.258466 7.863 0 -0.8 -0.432446 -0.451482 -0.780484
21.1931 14.7051 73.1434 0.230984 7.31434 0 -0.7 -0.887711 0.134749 -0.44024
32.1276 14.8403 72.4973 0.235192 7.24972 0 3.8 0.569897 0.457763 -0.6824
-3.3405 8.67387 79.5474 0.200262 7.95474 0 -3.5 -0.987956 0.140953 0.0638305
18.2059 17.9604 77.5429 0.271058 7.75429 0 4.5 -0.24735 0.968883 -0.00919599
7.14256 11.3519 81.2014 0.212382 8.12014 0 1.8 0.905797 -0.423712 -0.00075907
23.9949 18.9709 79.7247 0.239899 7.97248 0 -3.5 0.687873 0.519449 0.506955
24.706 11.8634 77.5918 0.230922 7.75917 0 -3.5 -0.783886 -0.550958 -0.286301
15.0255 10.0884 77.1118 0.215872 7.71118 0 4.5 -0.423315 -0.841224 -0.336371
14.735 16.2944 81.5886 0.209183 8.15886 0 -0.4 0.157205 0.30275 0.940015
30.4351 16.9807 73.502 0.219449 7.3502 0 3.8 0.502988 0.623202 -0.598851
12.4735 11.2806 79.6031 0.234475 7.96031 -0.214952 -0.8 0.325707 -0.774336 0.542511
5.194 9.32738 81.6364 0.179664 8.16364 0 1.8 0.0485291 -0.993151 0.106282
26.3465 17.3784 76.3064 0.24479 7.63064 0 2.26573 0.173938 0.795505 0.580445
31.3796 12.0955 74.7799 0.267771 7.47799 0 3.8 0.0513675 -0.966886 0.249986
30.8526 11.9427 72.9632 0.251195 7.29633 0 3.8 -0.140805 -0.955402 -0.259579
7.33484 12.2907 78.9153 0.195586 7.89153 -0.0095792 1.8 0.423215 -0.648276 -0.632951
20.5044 20.1408 77.1482 0.25385 7.71482 -0.150125 -3.5 -0.828267 0.407202 -0.384915
0.767125 7.88475 80.4269 0.18427 8.04269 0 -3.5 0.830702 -0.476894 0.287238
6.84469 11.7022 82.9547 0.20771 8.29547 0 1.8 0.482626 -0.162506 0.860618
27.6539 11.3993 79.7509 0.193581 7.97509 0 -3.5 0.493566 -0.153542 0.856047
33.2794 14.6458 75.5216 0.25075 7.55216 0 3.8 0.996697 -0.0296271 -0.0756073
23.3021 19.5912 74.9234 0.261044 7.49234 0.719282 -3.5 -0.0910944 0.5232 -0.847328
16.1061 11.3182 75.4782 0.227705 7.54782 0 4.5 0.0103147 -0.357747 -0.933762
24.8692 12.0396 76.2272 0.248623 7.62272 0.717489 -3.5 -0.329 -0.849611 -0.412215
1.48956 9.565 74.7683 0.198329 7.47683 0 -1.3 0.631362 -0.698366 -0.337144
2.51938 10.1211 81.3303 0.16877 8.13303 0 -1.3 0.0113315 -0.855315 0.517985
17.8676 11.3494 78.5069 0.217049 7.85069 0 4.5 0.469753 -0.77341 0.42564
4.34581 17.945 79.8851 0.210007 7.98851 -0.798182 -3.5 -0.848458 0.00921077 -0.529182
12.5103 11.2571 78.3142 0.215399 7.83143 -0.74143 -0.8 -0.0340529 -0.960926 -0.274703
-0.5475 12.9657 77.0095 0.239839 7.70095 0 -1.3 -0.291546 0.921527 -0.256492
-2.23187 8.96325 75.8549 0.179922 7.58549 0 -1.3 -0.385447 -0.922671 0.01047
26.6978 10.2519 76.7701 0.234005 7.67701 0 -3.5 -0.166376 -0.464455 -0.869828
3.4235 9.9075 80.4525 0.174861 8.04525 0 -0.743791 0.00815305 -0.989927 0.141347
10.7436 16.0622 80.3056 0.290169 8.03056 0 -0.8 -0.075127 0.848774 0.523391
21.1567 13.0484 78.004 0.237033 7.8004 0 -2.71969 0.370521 -0.904462 0.211338
23.4671 17.7774 74.666 0.249935 7.4666 -0.602384 -1.5997 -0.268259 0.527701 -0.805959
-2.91175 6.49675 79.3215 0.182332 7.93215 0 -3.5 -0.614934 -0.778185 -0.127611
32.6289 12.4264 73.4158 0.254084 7.34158 0 3.8 0.727638 -0.657991 -0.19388
29.5433 12.5638 75.2149 0.269531 7.52149 0 3.8 -0.0298095 -0.981439 -0.189443
12.208 16.9744 78.7201 0.271581 7.87201 -0.185185 -0.661681 -0.389405 0.914095 -0.113112
6.85638 16.8656 82.8142 0.272032 8.28143 -0.159399 -3.5 0.130303 -0.00491766 0.991462
27.5766 15.5921 73.3637 0.205341 7.33638 -0.0374642 3.8 -0.403166 -0.128148 -0.90611
7.29887 13.8459 82.7041 0.236752 8.27041 -0.235733 -3.5 0.113928 -0.0565564 0.991878
32.6661 14.5636 77.0198 0.249784 7.70198 0 3.8 0.599369 -0.0461871 0.799139
17.8514 14.2021 75.8891 0.248921 7.58891 0 4.5 -0.000429255 0.181612 -0.98337
19.7681 17.6663 79.8167 0.240078 7.98167 0 -3.5 -0.566172 0.511372 0.64649
26.8325 13.193 79.7009 0.212802 7.97009 -0.0391231 -3.5 0.0145821 0.254231 0.967034
26.4045 10.1392 79.7227 0.178041 7.97227 -0.0860743 -3.5 -0.194878 -0.685706 0.701305
10.595 14.3204 77.6605 0.279986 7.76605 -0.505513 -0.8 -0.346539 0.0234874 -0.937741
27.0608 17.2218 73.2333 0.205958 7.32333 -0.337847 3.8 -0.299459 0.235294 -0.924641
3.8775 13.2594 79.4571 0.199644 7.94571 0 1.8 -0.315287 0.899327 -0.302994
4.85162 13.1384 78.3449 0.199304 7.83449 -0.227651 1.8 -0.317121 0.480855 -0.817443
23.7402 12.851 79.0965 0.215874 7.90965 -0.369595 -3.5 -0.428535 -0.473181 0.769713
0.42075 7.22175 79.63 0.178768 7.963 -0.108699 -3.5 0.549795 -0.833533 0.0542926
0.674688 9.93888 73.0976 0.188066 7.30976 0 -1.3 0.552711 -0.254174 -0.793667
22.1503 20.2372 75.9616 0.261546 7.59616 0.0959236 -3.5 -0.241818 0.753239 -0.611683
3.777 10.1006 79.1351 0.189092 7.91351 0 1.8 0.409843 -0.819663 -0.400227
14.8877 14.4451 81.8626 0.230602 8.18626 -0.834571 -0.4 -0.0485068 -0.441614 0.895893
2.50669 10.0014 77.432 0.196872 7.7432 0 -1.3 0.725238 -0.574851 -0.378915
2.07262 13.1226 79.3479 0.211037 7.93479 0 -1.3 0.0320693 0.9988 0.0370066
12.9091 16.5369 81.2352 0.233914 8.12352 0 -0.4 -0.410512 0.585409 0.699125
29.8936 17.8179 74.6395 0.216603 7.46395 -0.89963 3.8 0.69325 0.707839 0.135532
1.16912 13.6454 78.1061 0.222982 7.81061 0 -1.3 0.0561202 0.990945 -0.121977
-0.909563 10.6384 73.2114 0.194508 7.32114 0 -1.3 0.0464386 0.536481 -0.842634
26.1721 15.5011 73.8456 0.232031 7.38456 -0.99198 3.8 0.211536 -0.147848 -0.966123
2.20681 10.6294 74.9208 0.209123 7.49208 0 -1.3 0.898727 -0.162045 -0.407469
17.731 12.514 75.7604 0.224451 7.57604 0 4.5 0.0899345 -0.0210432 -0.995725
9.023 12.538 79.6885 0.239761 7.96885 0 -3.04776 -0.250524 -0.961145 -0.11592
13.4675 13.2715 80.3351 0.22639 8.03351 -0.538322 -0.664134 0.302275 -0.682685 0.66526
28.1401 13.3202 74.9491 0.264728 7.49491 0.0423642 3.8 -0.229776 -0.73175 -0.641673
25.1912 18.3429 75.4099 0.245289 7.54099 -0.0282382 -3.26173 0.354829 0.862315 -0.361261
19.6118 12.984 75.8045 0.229749 7.58045 0 4.5 0.0478535 -0.265979 -0.96279
26.8046 16.1511 78.0199 0.259143 7.80199 -0.34343 -2.27534 0.0125377 0.821885 0.569515
27.9296 10.4066 76.7686 0.225812 7.67686 -0.564061 -3.5 0.693218 -0.573961 -0.435911
8.25872 15.3714 82.6908 0.275351 8.26908 0 -3.5 0.3232 0.277568 0.904709
20.1119 16.6093 76.2883 0.273332 7.62883 0 -2.5549 -0.261406 0.273775 -0.925589
3 66 361 190
3 24 131 361
3 190 361 131
3 286 92 150
3 150 92 139
3 139 56 150
3 139 57 207
3 384 207 226
3 57 361 207
3 371 384 281
3 384 110 112
3 112 110 195
3 278 44 107
3 44 435 107
3 44 72 99
3 99 72 10
3 99 10 314
3 72 8 194
3 8 226 194
3 194 226 207
3 194 207 412
3 412 207 361
3 412 361 66
3 175 412 66
3 131 286 63
3 286 323 63
3 63 323 71
3 411 323 275
3 323 286 275
3 47 93 379
3 56 371 379
3 162 379 371
3 371 281 162
3 26 35 162
3 40 162 147
3 35 147 162
3 281 112 26
3 149 26 195
3 112 195 26
3 112 281 384
3 35 149 362
3 35 362 377
3 377 147 35
3 377 64 399
3 64 236 399
3 399 236 435
3 338 399 435
3 338 31 73
3 338 73 440
3 31 314 73
3 73 314 177
3 73 177 5
3 5 177 406
3 177 314 335
3 406 177 335
3 175 304 350
3 350 304 436
3 304 0 436
3 0 445 436
3 356 274 372
3 323 372 71
3 372 274 71
3 71 274 445
3 372 344 89
3 89 344 206
3 372 323 344
3 411 93 444
3 444 93 47
3 229 316 277
3 147 100 40
3 277 147 343
3 316 229 441
3 360 229 88
3 229 285 88
3 88 285 116
3 188 254 285
3 116 285 254
3 136 116 243
3 254 243 116
3 407 254 188
3 254 407 414
3 243 254 414
3 414 407 202
3 202 407 114
3 202 399 338
3 440 125 438
3 447 440 5
3 356 447 406
3 89 206 217
3 342 444 441
3 441 360 432
3 360 193 324
3 116 159 199
3 159 116 136
3 249 129 386
3 151 438 239
3 438 82 183
3 183 82 91
3 82 157 433
3 82 433 91
3 397 297 183
3 183 297 239
3 297 4 239
3 95 300 16
3 16 300 30
3 300 433 332
3 324 332 433
3 373 324 264
3 360 324 432
3 324 433 432
3 259 214 409
3 331 214 259
3 331 259 19
3 345 424 290
3 290 424 456
3 400 424 345
3 400 345 159
3 235 311 224
3 400 386 311
3 456 365 182
3 365 204 200
3 204 14 200
3 14 224 205
3 173 205 32
3 205 449 32
3 449 189 308
3 410 392 308
3 191 295 358
3 330 191 358
3 381 357 430
3 301 430 357
3 301 49 430
3 353 160 301
3 49 301 160
3 353 301 357
3 353 357 337
3 337 357 30
3 30 357 16
3 337 30 380
3 337 380 349
3 337 349 215
3 38 349 144
3 144 43 38
3 43 144 409
3 373 409 144
3 373 264 409
3 98 238 105
3 105 238 364
3 364 238 124
3 364 124 279
3 124 305 220
3 305 11 220
3 124 220 279
3 279 220 113
3 220 331 113
3 113 331 422
3 422 331 290
3 113 422 312
3 168 312 422
3 168 456 340
3 415 182 322
3 322 365 287
3 365 200 287
3 287 200 68
3 287 68 59
3 59 68 450
3 200 173 115
3 450 115 392
3 352 410 161
3 352 161 293
3 161 410 330
3 330 319 111
3 111 319 363
3 165 2 17
3 17 2 260
3 2 421 260
3 260 421 122
3 122 421 128
3 421 160 415
3 215 340 137
3 137 340 415
3 415 442 421
3 421 442 128
3 442 415 22
3 415 322 22
3 442 22 287
3 442 70 390
3 442 390 74
3 70 59 439
3 59 450 439
3 439 450 265
3 265 118 439
3 152 288 390
3 273 186 326
3 326 186 307
3 118 348 186
3 348 197 289
3 293 389 196
3 325 408 327
3 132 20 111
3 426 171 170
3 181 170 171
3 363 170 181
3 218 426 185
3 170 185 426
3 87 97 185
3 185 97 79
3 97 369 36
3 97 36 79
3 79 36 385
3 369 141 234
3 234 260 369
3 122 128 310
3 48 135 310
3 48 390 135
3 288 120 355
3 120 313 355
3 120 18 313
3 326 307 156
3 156 307 90
3 289 101 408
3 289 408 280
3 325 318 192
3 192 318 242
3 453 34 320
3 34 426 218
3 457 237 7
3 237 385 7
3 7 385 272
3 7 272 255
3 255 272 223
3 223 398 255
3 223 272 427
3 36 355 313
3 272 385 313
3 313 427 272
3 18 427 313
3 427 117 198
3 90 50 156
3 90 167 50
3 167 62 50
3 23 50 62
3 167 280 416
3 127 416 280
3 127 280 192
3 142 253 244
3 233 378 209
3 233 299 378
3 248 251 209
3 354 172 382
3 382 142 119
3 354 41 339
3 354 339 328
3 328 339 457
3 256 46 109
3 46 252 109
3 109 252 179
3 398 223 252
3 276 252 223
3 303 333 263
3 263 198 81
3 81 198 268
3 263 6 283
3 263 283 303
3 283 6 210
3 284 262 23
3 50 23 262
3 284 434 375
3 296 434 25
3 405 33 130
3 388 405 298
3 134 267 405
3 405 130 134
3 130 299 134
3 130 378 299
3 299 446 216
3 258 306 423
3 446 240 271
3 446 84 431
3 84 231 431
3 431 231 452
3 403 417 158
3 403 270 452
3 52 138 166
3 109 387 138
3 387 109 179
3 387 179 303
3 387 283 153
3 153 210 336
3 153 302 334
3 246 334 302
3 302 153 336
3 336 178 302
3 246 302 454
3 21 302 178
3 225 21 428
3 178 428 21
3 65 225 3
3 428 317 225
3 3 225 317
3 428 13 351
3 351 13 296
3 428 375 13
3 401 351 429
3 429 146 106
3 106 291 429
3 146 388 106
3 106 298 291
3 291 298 413
3 455 145 121
3 145 103 420
3 103 451 420
3 103 267 451
3 261 306 258
3 261 258 366
3 261 366 294
3 294 366 140
3 258 374 366
3 347 374 423
3 431 423 446
3 45 431 184
3 45 184 80
3 241 80 184
3 241 184 452
3 166 452 270
3 166 104 452
3 241 452 394
3 80 241 315
3 15 282 169
3 169 126 148
3 148 126 454
3 148 37 227
3 227 37 370
3 227 370 221
3 221 370 245
3 317 368 370
3 317 346 368
3 368 121 180
3 180 145 329
3 329 145 420
3 154 228 401
3 346 401 228
3 292 429 309
3 154 292 455
3 228 154 455
3 329 420 395
3 395 420 376
3 143 140 366
3 396 419 395
3 174 367 419
3 366 374 219
3 347 431 45
3 78 391 347
3 374 347 391
3 443 391 78
3 443 123 391
3 212 123 94
3 282 15 443
3 321 443 15
3 15 169 321
3 321 169 227
3 221 245 425
3 174 383 367
3 367 383 9
3 367 9 402
3 402 9 230
3 230 9 212
3 391 123 212
3 402 211 266
3 211 213 266
3 266 329 395
3 158 155 359
3 340 201 168
3 201 312 168
3 215 51 201
3 312 201 364
3 51 364 201
3 364 51 38
3 386 4 297
3 222 136 187
3 411 444 344
3 371 56 139
3 384 371 207
3 207 371 139
3 99 435 44
3 335 314 194
3 335 194 412
3 194 10 72
3 10 194 314
3 100 379 40
3 40 379 162
3 26 149 35
3 343 147 377
3 407 343 114
3 114 343 377
3 440 73 5
3 277 316 100
3 277 100 147
3 360 441 229
3 151 393 414
3 151 414 438
3 438 414 338
3 202 338 414
3 114 377 202
3 157 125 440
3 157 440 217
3 217 440 447
3 157 217 206
3 433 157 342
3 342 157 206
3 432 433 342
3 441 432 342
3 19 259 324
3 19 324 193
3 19 193 345
3 345 193 199
3 159 345 199
3 449 224 163
3 163 224 311
3 163 311 386
3 183 239 438
3 449 297 397
3 381 449 397
3 189 449 381
3 357 381 397
3 357 397 16
3 16 397 95
3 380 30 332
3 332 30 300
3 373 380 332
3 373 332 324
3 331 19 290
3 290 19 345
3 456 424 235
3 311 235 424
3 400 311 424
3 173 200 205
3 205 200 14
3 449 205 224
3 330 410 191
3 358 430 165
3 430 358 295
3 160 353 137
3 137 353 215
3 337 215 353
3 182 415 340
3 365 322 182
3 115 450 68
3 115 68 200
3 348 118 265
3 348 265 352
3 352 265 450
3 293 327 352
3 327 197 352
3 330 20 161
3 111 20 330
3 87 170 250
3 87 250 141
3 141 250 234
3 319 96 250
3 96 319 358
3 319 250 363
3 363 250 170
3 234 96 17
3 17 96 165
3 165 96 358
3 250 96 234
3 260 234 17
3 415 160 137
3 287 22 322
3 390 439 152
3 439 390 70
3 120 288 273
3 120 273 326
3 289 307 348
3 186 348 307
3 352 197 348
3 426 448 171
3 87 185 170
3 36 369 355
3 133 355 369
3 18 120 326
3 117 18 326
3 156 117 326
3 90 307 280
3 307 289 280
3 192 280 408
3 192 408 325
3 119 142 164
3 320 164 453
3 119 164 320
3 176 320 34
3 320 176 339
3 320 339 119
3 119 339 41
3 457 339 176
3 457 176 218
3 218 176 34
3 255 457 7
3 36 313 385
3 117 427 18
3 268 198 117
3 268 117 156
3 50 262 268
3 50 268 156
3 167 90 280
3 416 127 341
3 247 416 28
3 28 416 341
3 164 28 341
3 164 244 28
3 164 142 244
3 453 164 341
3 130 244 378
3 378 244 253
3 328 158 417
3 354 328 417
3 155 158 328
3 155 328 457
3 255 359 155
3 255 155 457
3 333 303 179
3 276 333 179
3 276 179 252
3 336 210 262
3 336 262 284
3 178 336 284
3 178 375 428
3 375 178 284
3 13 375 434
3 13 434 296
3 388 25 434
3 388 434 232
3 33 232 247
3 247 232 434
3 405 388 232
3 405 232 33
3 298 267 413
3 267 298 405
3 451 267 134
3 216 451 134
3 216 134 299
3 306 451 216
3 216 446 306
3 306 446 423
3 417 452 231
3 452 417 403
3 334 166 138
3 104 334 246
3 452 104 394
3 246 394 104
3 126 394 454
3 454 394 246
3 225 65 454
3 225 454 21
3 21 454 302
3 346 317 428
3 401 346 428
3 351 401 428
3 376 420 451
3 376 451 261
3 261 451 306
3 294 376 261
3 169 282 126
3 227 169 148
3 245 370 180
3 180 370 368
3 213 245 329
3 329 245 180
3 145 180 121
3 266 419 367
3 266 367 402
3 366 383 143
3 219 383 366
3 321 94 123
3 321 123 443
3 212 9 219
3 212 219 391
3 219 9 383
3 213 329 266
3 349 38 51
3 215 349 51
3 386 297 163
3 163 297 449
3 92 24 57
3 57 24 361
3 57 139 92
3 92 286 24
3 190 131 60
3 60 131 63
3 60 63 445
3 60 445 257
3 60 257 190
3 76 190 257
3 76 66 190
3 66 76 175
3 286 131 24
3 379 275 56
3 56 275 150
3 93 275 379
3 281 26 162
3 72 44 418
3 8 418 226
3 226 418 384
3 8 72 418
3 418 44 278
3 418 278 110
3 418 110 384
3 64 362 39
3 64 39 236
3 362 149 54
3 39 362 54
3 39 54 53
3 236 39 53
3 236 53 107
3 54 149 195
3 54 195 108
3 53 54 108
3 53 108 278
3 107 53 278
3 278 108 110
3 107 435 236
3 64 377 362
3 108 195 110
3 314 31 102
3 102 31 338
3 102 338 435
3 102 435 99
3 102 99 314
3 412 175 335
3 335 175 350
3 304 257 0
3 304 175 76
3 304 76 257
3 0 257 445
3 445 274 356
3 63 71 445
3 372 1 356
3 356 1 447
3 1 372 89
3 275 93 411
3 275 286 150
3 316 444 47
3 316 441 444
3 47 379 100
3 47 100 316
3 285 229 277
3 188 285 277
3 188 277 343
3 407 188 343
3 399 202 377
3 438 338 440
3 5 406 447
3 350 406 335
3 406 436 356
3 436 406 350
3 445 356 436
3 89 447 1
3 89 217 447
3 444 342 206
3 444 206 344
3 411 344 323
3 88 116 199
3 88 199 193
3 360 88 193
3 187 393 249
3 187 249 222
3 159 136 222
3 129 249 393
3 243 393 187
3 243 187 136
3 243 414 393
3 125 157 82
3 82 438 125
3 397 91 95
3 95 91 300
3 91 397 183
3 91 433 300
3 264 324 259
3 409 264 259
3 400 249 386
3 249 400 222
3 159 222 400
3 204 235 12
3 365 235 204
3 365 456 235
3 235 224 12
3 204 12 224
3 204 224 14
3 4 129 55
3 55 239 4
3 4 386 129
3 129 393 55
3 55 393 151
3 55 151 239
3 191 410 189
3 189 410 308
3 191 189 295
3 189 381 295
3 430 295 381
3 349 380 144
3 380 373 144
3 98 83 238
3 305 238 83
3 305 83 409
3 305 409 27
3 214 27 409
3 27 214 11
3 27 11 305
3 238 305 124
3 98 43 83
3 43 409 83
3 11 331 220
3 11 214 331
3 456 422 290
3 456 168 422
3 182 340 456
3 308 392 173
3 308 173 32
3 449 308 32
3 392 410 352
3 392 352 450
3 330 358 319
3 2 165 49
3 2 49 421
3 49 165 430
3 49 160 421
3 215 201 340
3 98 105 38
3 43 98 38
3 38 105 364
3 312 364 279
3 312 279 113
3 287 59 70
3 442 287 70
3 392 115 173
3 273 152 77
3 77 152 439
3 77 439 118
3 118 186 77
3 77 186 273
3 273 288 152
3 293 161 389
3 389 161 20
3 20 132 389
3 389 132 404
3 389 404 196
3 196 325 293
3 327 293 325
3 448 404 171
3 29 181 171
3 29 171 404
3 29 404 132
3 29 132 111
3 181 29 363
3 111 363 29
3 369 97 141
3 97 87 141
3 260 122 369
3 122 310 369
3 369 310 133
3 133 310 135
3 48 310 74
3 74 390 48
3 310 128 442
3 310 442 74
3 288 355 135
3 288 135 390
3 135 355 133
3 408 101 327
3 197 101 289
3 101 197 327
3 318 404 448
3 404 318 196
3 196 318 325
3 318 448 453
3 318 453 242
3 426 453 448
3 426 34 453
3 385 237 79
3 185 237 218
3 457 218 237
3 237 185 79
3 127 192 242
3 127 242 341
3 453 341 242
3 253 203 248
3 203 253 142
3 253 248 378
3 172 354 271
3 382 172 251
3 382 251 203
3 382 203 142
3 203 251 248
3 378 248 209
3 119 41 382
3 382 41 354
3 46 69 252
3 252 69 398
3 256 437 46
3 69 46 437
3 69 437 398
3 398 437 359
3 398 359 255
3 427 198 276
3 427 276 223
3 333 276 198
3 333 198 263
3 81 268 262
3 81 262 6
3 6 262 210
3 6 263 81
3 416 247 167
3 434 62 247
3 167 247 62
3 23 434 284
3 434 23 62
3 130 33 244
3 247 244 33
3 247 28 244
3 299 233 446
3 67 209 251
3 67 251 172
3 67 172 271
3 67 271 240
3 67 240 233
3 67 233 209
3 354 417 271
3 271 84 446
3 271 417 84
3 231 84 417
3 403 437 256
3 403 256 270
3 403 158 359
3 403 359 437
3 109 52 256
3 52 109 138
3 283 387 303
3 210 153 283
3 387 153 334
3 387 334 138
3 351 296 42
3 146 429 351
3 146 351 42
3 42 296 25
3 42 25 146
3 388 146 25
3 298 106 388
3 267 103 413
3 413 103 455
3 455 103 145
3 374 258 423
3 184 431 452
3 233 240 446
3 52 166 270
3 52 270 256
3 334 104 166
3 126 282 315
3 126 315 394
3 241 394 315
3 86 148 65
3 86 65 3
3 86 3 317
3 86 317 37
3 86 37 148
3 65 148 454
3 37 317 370
3 346 228 368
3 368 228 121
3 401 292 154
3 401 429 292
3 292 309 75
3 75 309 291
3 61 75 291
3 61 291 413
3 413 455 61
3 61 455 292
3 61 292 75
3 291 309 429
3 228 455 121
3 140 396 294
3 294 396 376
3 140 143 269
3 269 419 140
3 396 140 419
3 376 396 395
3 419 269 174
3 423 431 347
3 443 208 315
3 78 45 208
3 315 208 80
3 208 45 80
3 315 282 443
3 208 443 78
3 78 347 45
3 58 321 227
3 58 227 221
3 245 213 425
3 221 425 58
3 58 425 85
3 58 85 94
3 58 94 321
3 85 425 402
3 211 402 425
3 211 425 213
3 419 266 395
3 383 174 269
3 383 269 143
3 391 219 374
3 230 85 402
3 230 212 94
3 230 94 85
